<svg viewBox = "0 0 416.6 341.59" width="416.6" height="341.59" xmlns="http://www.w3.org/2000/svg"><g transform="matrix(1 0 0 1 208.3 170.79)"  ><g style=""   ><g transform="matrix(1 0 0 1 57.54 -113.55)" id="c"  ><path style="stroke: none; stroke-width: 1; stroke-dasharray: none; stroke-linecap: butt; stroke-dashoffset: 0; stroke-linejoin: miter; stroke-miterlimit: 4; fill: rgb(243,170,193); fill-rule: nonzero; opacity: 1;"  transform=" translate(-265.84, -57.24)" d="M 233.78 14.14 C 256.86 11.46 315.79 40.68 320.90999999999997 59.25 L 289.08 98.65 C 262.04999999999995 74.95 237.61999999999998 65.58000000000001 211.62 60.18000000000001 C 219.09 40.11000000000001 227.21 19.460000000000008 229.94 14.290000000000006 C 230.82999999999998 14.210000000000006 232.10999999999999 14.130000000000006 233.77 14.130000000000006 M 233.77 10.130000000000006 C 229.76000000000002 10.130000000000006 227.70000000000002 10.550000000000006 227.70000000000002 10.550000000000006 C 225.36 11.330000000000005 206.16000000000003 63.39000000000001 206.16000000000003 63.39000000000001 C 206.16000000000003 63.39000000000001 251.72000000000003 68.04 289.48 104.51 L 325.52000000000004 59.89000000000001 C 323.68000000000006 41.85000000000001 262.43000000000006 7.400000000000006 233.77000000000004 10.13000000000001 L 233.77000000000004 10.13000000000001 Z" stroke-linecap="round" /></g><g transform="matrix(1 0 0 1 40.76 -88.42)" id="c"  ><path style="stroke: rgb(144,149,160); stroke-width: 1; stroke-dasharray: none; stroke-linecap: round; stroke-dashoffset: 0; stroke-linejoin: round; stroke-miterlimit: 4; fill: none; fill-rule: nonzero; opacity: 1;"  transform=" translate(-249.06, -82.38)" d="M 212.86 67.44 C 212.86 67.44 257.66 71.97 285.27 97.31" stroke-linecap="round" /></g><g transform="matrix(1 0 0 1 60.19 -121.09)" id="c"  ><polygon style="stroke: none; stroke-width: 1; stroke-dasharray: none; stroke-linecap: butt; stroke-dashoffset: 0; stroke-linejoin: miter; stroke-miterlimit: 4; fill: rgb(243,170,193); fill-rule: nonzero; opacity: 1;"  points="-16.94,15.56 -0.24,-16.95 16.94,16.95 -16.94,15.56 " /></g><g transform="matrix(1 0 0 1 63.44 -121.55)" id="c"  ><polygon style="stroke: rgb(144,149,160); stroke-width: 1; stroke-dasharray: none; stroke-linecap: round; stroke-dashoffset: 0; stroke-linejoin: round; stroke-miterlimit: 4; fill: none; fill-rule: nonzero; opacity: 1;"  points="-16.94,15.55 -0.24,-16.95 16.94,16.95 -16.94,15.55 " /></g><g transform="matrix(1 0 0 1 71.54 -141.82)" id="c"  ><path style="stroke: rgb(144,149,160); stroke-width: 1; stroke-dasharray: none; stroke-linecap: round; stroke-dashoffset: 0; stroke-linejoin: round; stroke-miterlimit: 4; fill: none; fill-rule: nonzero; opacity: 1;"  transform=" translate(-279.84, -28.98)" d="M 239.11 8.16 C 239.11 8.16 289.34000000000003 12.690000000000001 320.57 49.790000000000006" stroke-linecap="round" /></g><g transform="matrix(1 0 0 1 61.83 -32.44)" id="c"  ><path style="stroke: none; stroke-width: 1; stroke-dasharray: none; stroke-linecap: butt; stroke-dashoffset: 0; stroke-linejoin: miter; stroke-miterlimit: 4; fill: rgb(144,149,160); fill-rule: nonzero; opacity: 1;"  transform=" translate(-270.13, -138.36)" d="M 264.78 152.18 C 262.02 150.15 260.21 148.79000000000002 260.21 148.79000000000002 C 260.97999999999996 147.77 273.06 134.89000000000001 280.06 124.52000000000002 C 280.06 124.52000000000002 265.91 153.01000000000002 264.78000000000003 152.18000000000004 Z" stroke-linecap="round" /></g><g transform="matrix(1 0 0 1 -105.57 -103.73)" id="c"  ><path style="stroke: rgb(144,149,160); stroke-width: 1; stroke-dasharray: none; stroke-linecap: round; stroke-dashoffset: 0; stroke-linejoin: round; stroke-miterlimit: 4; fill: none; fill-rule: nonzero; opacity: 1;"  transform=" translate(-102.73, -67.06)" d="M 93.49 58.31 C 95.5 62.370000000000005 104.78999999999999 54.86 110.69 66.69 C 115.48 76.41 105.55 71.81 102.16 75.81" stroke-linecap="round" /></g><g transform="matrix(1 0 0 1 -21.97 136.64)" id="c"  ><polygon style="stroke: none; stroke-width: 1; stroke-dasharray: none; stroke-linecap: butt; stroke-dashoffset: 0; stroke-linejoin: miter; stroke-miterlimit: 4; fill: rgb(255,230,204); fill-rule: nonzero; opacity: 1;"  points="7.93,-5.66 4.45,-11.55 -7.92,9.06 -4.67,11.55 7.93,-5.66 " /></g><g transform="matrix(1 0 0 1 -89.91 72.11)" id="c"  ><path style="stroke: none; stroke-width: 1; stroke-dasharray: none; stroke-linecap: butt; stroke-dashoffset: 0; stroke-linejoin: miter; stroke-miterlimit: 4; fill: rgb(255,230,204); fill-rule: nonzero; opacity: 1;"  transform=" translate(-118.39, -242.91)" d="M 112.17 250.67 C 112.17 250.67 105.76 240.25 108.51 235.14999999999998 L 128.95000000000002 237.33999999999997 L 112.17000000000002 250.67 Z" stroke-linecap="round" /></g><g transform="matrix(1 0 0 1 -87.97 82.56)" id="c"  ><path style="stroke: none; stroke-width: 1; stroke-dasharray: none; stroke-linecap: butt; stroke-dashoffset: 0; stroke-linejoin: miter; stroke-miterlimit: 4; fill: rgb(10,13,66); fill-rule: nonzero; opacity: 1;"  transform=" translate(-120.33, -253.36)" d="M 112.17 250.67 C 116.06 255.51999999999998 105.79 268.88 111.21000000000001 273.27 L 111.21000000000001 273.27 L 129.9 245.64 C 133.42000000000002 240.82 128.20000000000002 236.32999999999998 124.77000000000001 233.45 L 112.17000000000002 250.66 Z" stroke-linecap="round" /></g><g transform="matrix(1 0 0 1 -104.92 -103.89)" id="c"  ><path style="stroke: none; stroke-width: 1; stroke-dasharray: none; stroke-linecap: butt; stroke-dashoffset: 0; stroke-linejoin: miter; stroke-miterlimit: 4; fill: rgb(14,18,94); fill-rule: nonzero; opacity: 1;"  transform=" translate(-103.38, -66.9)" d="M 102.17 75.81 C 108.02 75.67 115.44 75.3 113.96000000000001 70.85000000000001 C 112.48 66.4 106.91000000000001 55.27000000000001 94.30000000000001 58.61000000000001 C 94.30000000000001 58.61000000000001 89.85000000000001 62.32000000000001 95.41000000000001 68.99000000000001 C 100.97000000000001 75.67000000000002 102.17000000000002 75.80000000000001 102.17000000000002 75.80000000000001 Z" stroke-linecap="round" /></g><g transform="matrix(1 0 0 1 -70.79 28.75)" id="c"  ><path style="stroke: none; stroke-width: 1; stroke-dasharray: none; stroke-linecap: butt; stroke-dashoffset: 0; stroke-linejoin: miter; stroke-miterlimit: 4; fill: rgb(31,39,205); fill-rule: nonzero; opacity: 1;"  transform=" translate(-137.51, -199.55)" d="M 131.79 237.58 C 124.24999999999999 216.55 119.71 169.64000000000001 163.14999999999998 204.17000000000002 L 179.45999999999998 174.71 C 125.69999999999999 126.78 71.22999999999998 170.19 107.05999999999997 244.51 L 131.78999999999996 237.57 Z" stroke-linecap="round" /></g><g transform="matrix(1 0 0 1 -63.27 43.93)" id="c"  ><path style="stroke: rgb(144,149,160); stroke-width: 1; stroke-dasharray: none; stroke-linecap: round; stroke-dashoffset: 0; stroke-linejoin: round; stroke-miterlimit: 4; fill: none; fill-rule: nonzero; opacity: 1;"  transform=" translate(-145.03, -214.72)" d="M 131.79 237.58 C 124.24999999999999 216.55 119.71 169.64000000000001 163.14999999999998 204.17000000000002" stroke-linecap="round" /></g><g transform="matrix(1 0 0 1 -29.09 77.93)" id="c"  ><path style="stroke: none; stroke-width: 1; stroke-dasharray: none; stroke-linecap: butt; stroke-dashoffset: 0; stroke-linejoin: miter; stroke-miterlimit: 4; fill: rgb(31,39,205); fill-rule: nonzero; opacity: 1;"  transform=" translate(-179.21, -248.73)" d="M 179.46 174.72 C 149.39000000000001 220.42000000000002 115.74000000000001 262.9 177.34 322.73 L 194.92000000000002 297.13 C 170.08 265.40999999999997 198.17000000000002 221.07999999999998 215.63000000000002 194.54 L 179.47000000000003 174.72 Z" stroke-linecap="round" /></g><g transform="matrix(1 0 0 1 -7.06 18.7)" id="c"  ><polygon style="stroke: none; stroke-width: 1; stroke-dasharray: none; stroke-linecap: butt; stroke-dashoffset: 0; stroke-linejoin: miter; stroke-miterlimit: 4; fill: rgb(144,149,160); fill-rule: nonzero; opacity: 1;"  points="-18.99,-11.47 10.25,11.47 18.99,-1.81 -18.99,-11.47 " /></g><g transform="matrix(1 0 0 1 147.71 -11.87)" id="c"  ><path style="stroke: none; stroke-width: 1; stroke-dasharray: none; stroke-linecap: butt; stroke-dashoffset: 0; stroke-linejoin: miter; stroke-miterlimit: 4; fill: rgb(171,174,242); fill-rule: nonzero; opacity: 1;"  transform=" translate(-356.01, -158.93)" d="M 350.17 153.9 C 355.07 154.81 364.74 159.25 361.03000000000003 163.67000000000002 C 356.70000000000005 165.59 349.89000000000004 157.13000000000002 350.17 153.9 Z" stroke-linecap="round" /></g><g transform="matrix(1 0 0 1 99.24 -23.09)" id="c"  ><path style="stroke: none; stroke-width: 1; stroke-dasharray: none; stroke-linecap: butt; stroke-dashoffset: 0; stroke-linejoin: miter; stroke-miterlimit: 4; fill: rgb(255,230,204); fill-rule: nonzero; opacity: 1;"  transform=" translate(-307.54, -147.71)" d="M 260.21 148.79 C 260.97999999999996 147.76999999999998 273.06 134.89 280.06 124.52 C 280.06 124.52 301.21 148.22 303.51 148.99 C 310.82 149.66 341 148.17000000000002 344.53999999999996 150.52 C 360.52 156.17000000000002 355.30999999999995 171.87 346.83 159.69 C 337.52 163.59 317.94 174.47 291.15 169.71 C 286.2 168.32000000000002 260.2 148.79000000000002 260.2 148.79000000000002 Z" stroke-linecap="round" /></g><g transform="matrix(1 0 0 1 -66.83 -87.79)" id="c"  ><path style="stroke: none; stroke-width: 1; stroke-dasharray: none; stroke-linecap: butt; stroke-dashoffset: 0; stroke-linejoin: miter; stroke-miterlimit: 4; fill: rgb(255,230,204); fill-rule: nonzero; opacity: 1;"  transform=" translate(-141.47, -83)" d="M 95.88 54.12 C 93.55 55.01 92.14 56.07 93.49 58.309999999999995 C 94.83999999999999 60.55 95.44 59.66 99.32 59.35999999999999 C 103.19999999999999 59.05999999999999 108.74 61.89999999999999 110.69 66.69 C 112.64 71.48 112.03999999999999 72.23 110.99 72.82 C 109.94 73.41999999999999 102.46 74.32 102.16 75.80999999999999 C 101.27 77.53999999999999 107.72999999999999 82.91999999999999 113.72 81.11999999999999 C 136.21 104.29999999999998 152.94 119.97999999999999 189.98000000000002 108.63 C 189.98000000000002 108.63 184.09000000000003 98.03 182.9 81.72 C 182.9 81.72 168.82 83.98 159.46 86.03999999999999 C 159.46 86.03999999999999 137.62 73.85999999999999 127 68.47999999999999 C 118.85 58.18999999999999 111.91 51.639999999999986 95.89 54.11999999999999 Z" stroke-linecap="round" /></g><g transform="matrix(1 0 0 1 -23.61 -74.13)" id="c"  ><path style="stroke: none; stroke-width: 1; stroke-dasharray: none; stroke-linecap: butt; stroke-dashoffset: 0; stroke-linejoin: miter; stroke-miterlimit: 4; fill: rgb(144,149,160); fill-rule: nonzero; opacity: 1;"  transform=" translate(-184.69, -96.67)" d="M 183.59 109.99 C 187.4 109.25 189.98 108.63 189.98 108.63 C 189.98 108.63 182.85999999999999 99.64999999999999 181.66 83.35 C 176.95 86.91 180.60999999999999 108.74 183.59 109.99 Z" stroke-linecap="round" /></g><g transform="matrix(1 0 0 1 9.45 -34.19)" id="c"  ><path style="stroke: none; stroke-width: 1; stroke-dasharray: none; stroke-linecap: butt; stroke-dashoffset: 0; stroke-linejoin: miter; stroke-miterlimit: 4; fill: rgb(251,224,232); fill-rule: nonzero; opacity: 1;"  transform=" translate(-217.75, -136.6)" d="M 181.32 81.53 C 181.32 81.53 181.51999999999998 101.46000000000001 186.85 109.77 L 188.76 109 C 188.76 109 163.6 138.43 155.47 157.66 C 154.14 160.81 207.7 195.01999999999998 215.61 194.54 C 215.61 194.54 241.70000000000002 154.70999999999998 250.63000000000002 142.91 L 260.22 150.34 C 260.22 150.34 279.03000000000003 131.29 280.05 124.52000000000001 C 280.05 124.52000000000001 261.88 102.41000000000001 247.01000000000002 95.93 C 232.14000000000004 89.45 218.86 78.36000000000001 202.89000000000001 78.67 C 189.06 78.93 181.31 81.54 181.31 81.54 Z" stroke-linecap="round" /></g><g transform="matrix(1 0 0 1 47.13 -26.26)" id="c"  ><polygon style="stroke: none; stroke-width: 1; stroke-dasharray: none; stroke-linecap: butt; stroke-dashoffset: 0; stroke-linejoin: miter; stroke-miterlimit: 4; fill: rgb(144,149,160); fill-rule: nonzero; opacity: 1;"  points="4.8,5.79 -4.8,-1.64 -3.27,-5.8 4.8,5.79 " /></g><g transform="matrix(1 0 0 1 43.82 -93.59)" id="c"  ><path style="stroke: none; stroke-width: 1; stroke-dasharray: none; stroke-linecap: butt; stroke-dashoffset: 0; stroke-linejoin: miter; stroke-miterlimit: 4; fill: rgb(255,230,204); fill-rule: nonzero; opacity: 1;"  transform=" translate(-252.12, -77.21)" d="M 274.83 71.55 C 270.93 83.37 266.5 99.63 251.85 93.27 L 246.09 96.22 C 243.04 101.03999999999999 226.34 103.07 229.32 90.58 C 232.72 79.96 232.66 70.5 241.07 58.87 C 250.85 46.53 279.15 63.05 274.84 71.56 Z" stroke-linecap="round" /></g><g transform="matrix(1 0 0 1 55.17 -110.51)" id="c"  ><path style="stroke: none; stroke-width: 1; stroke-dasharray: none; stroke-linecap: butt; stroke-dashoffset: 0; stroke-linejoin: miter; stroke-miterlimit: 4; fill: rgb(14,18,94); fill-rule: nonzero; opacity: 1;"  transform=" translate(-263.47, -60.28)" d="M 240.06 72.29 C 237.59 82.79 229.13 84.5 232.36 71.01 C 234.02 63.900000000000006 236.35000000000002 43.68000000000001 245.83 50.61000000000001 C 245.83 50.61000000000001 243.91000000000003 41.24000000000001 249.55 39.96000000000001 C 249.55 39.96000000000001 251.47 39.06000000000001 250.71 45.480000000000004 C 256.78000000000003 34.46000000000001 268.15000000000003 42.74 269.44 51 C 271.55 44.5 281.86 51.04 280.09 58.31 C 290.31 53.43 305.21999999999997 73.55 285.98999999999995 78.84 C 274.98999999999995 81.79 275.0799999999999 68.96000000000001 273.41999999999996 67.29 C 267.24999999999994 60.56 260.94999999999993 72.15 251.21999999999997 61.52000000000001 C 251.21999999999997 61.52000000000001 250.18999999999997 69.73000000000002 249.16999999999996 70.50000000000001 C 248.13999999999996 71.27000000000001 246.08999999999995 72.30000000000001 246.59999999999997 68.45000000000002 C 247.10999999999999 64.60000000000002 247.75999999999996 64.99000000000002 247.36999999999998 63.960000000000015 C 246.98 62.93000000000001 245.24999999999997 59.70000000000002 241.59999999999997 62.55000000000002 C 237.48999999999995 65.76000000000002 240.05999999999997 72.30000000000001 240.05999999999997 72.30000000000001 Z" stroke-linecap="round" /></g><g transform="matrix(1 0 0 1 34.82 -103.46)" id="c"  ><path style="stroke: rgb(14,18,94); stroke-width: 1; stroke-dasharray: none; stroke-linecap: round; stroke-dashoffset: 0; stroke-linejoin: round; stroke-miterlimit: 4; fill: none; fill-rule: nonzero; opacity: 1;"  transform=" translate(-243.12, -67.34)" d="M 241.81 73.73 C 231.72 66.21000000000001 250.36 52.480000000000004 247.06 68.11" stroke-linecap="round" /></g><g transform="matrix(1 0 0 1 -18.48 150.88)" id="c"  ><path style="stroke: none; stroke-width: 1; stroke-dasharray: none; stroke-linecap: butt; stroke-dashoffset: 0; stroke-linejoin: miter; stroke-miterlimit: 4; fill: rgb(10,13,66); fill-rule: nonzero; opacity: 1;"  transform=" translate(-189.82, -321.67)" d="M 181.66 318.98 C 185.54999999999998 323.83000000000004 175.28 337.19 180.7 341.58000000000004 L 180.7 341.58000000000004 L 199.39 313.95000000000005 C 202.91 309.13000000000005 197.69 304.64000000000004 194.26 301.76000000000005 L 181.66 318.97 Z" stroke-linecap="round" /></g><g transform="matrix(1 0 0 1 34.67 -123.12)" id="c"  ><path style="stroke: rgb(14,18,94); stroke-width: 1; stroke-dasharray: none; stroke-linecap: round; stroke-dashoffset: 0; stroke-linejoin: round; stroke-miterlimit: 4; fill: none; fill-rule: nonzero; opacity: 1;"  transform=" translate(-242.97, -47.67)" d="M 245.83 50.61 C 245.83 50.61 244.4 45.95 240.11 44.73" stroke-linecap="round" /></g><g transform="matrix(1 0 0 1 -27.52 -50.71)" id="c"  ><line style="stroke: rgb(144,149,160); stroke-width: 1; stroke-dasharray: none; stroke-linecap: round; stroke-dashoffset: 0; stroke-linejoin: round; stroke-miterlimit: 4; fill: none; fill-rule: nonzero; opacity: 1;"  x1="-25.89500000000001" y1="36.165" x2="25.89500000000001" y2="-36.165" /></g><g transform="matrix(1 0 0 1 29.03 -75.03)" id="c"  ><path style="stroke: rgb(144,149,160); stroke-width: 1; stroke-dasharray: none; stroke-linecap: round; stroke-dashoffset: 0; stroke-linejoin: round; stroke-miterlimit: 4; fill: none; fill-rule: nonzero; opacity: 1;"  transform=" translate(-237.33, -95.77)" d="M 228.02 88.98 C 221.34 105.76 241.9 103.98 247.96 99.43" stroke-linecap="round" /></g><g transform="matrix(1 0 0 1 -91.5 -109.86)" id="c"  ><path style="stroke: rgb(144,149,160); stroke-width: 1; stroke-dasharray: none; stroke-linecap: round; stroke-dashoffset: 0; stroke-linejoin: round; stroke-miterlimit: 4; fill: none; fill-rule: nonzero; opacity: 1;"  transform=" translate(-116.8, -60.93)" d="M 113.38 55.62 C 113.38 55.62 119.3 63.449999999999996 120.22999999999999 66.24" stroke-linecap="round" /></g><g transform="matrix(1 0 0 1 133.3 -12.38)" id="c"  ><path style="stroke: rgb(144,149,160); stroke-width: 1; stroke-dasharray: none; stroke-linecap: round; stroke-dashoffset: 0; stroke-linejoin: round; stroke-miterlimit: 4; fill: none; fill-rule: nonzero; opacity: 1;"  transform=" translate(-341.6, -158.42)" d="M 335.01 160.64 C 335.01 160.64 338.96999999999997 163.89999999999998 346.84 159.67999999999998 C 349.7 158.14999999999998 347.65999999999997 154.54 344.04999999999995 155.43999999999997 C 340.43999999999994 156.33999999999997 336.13999999999993 154.98999999999998 336.13999999999993 154.98999999999998" stroke-linecap="round" /></g><g transform="matrix(1 0 0 1 145.08 -12.91)" id="c"  ><path style="stroke: rgb(144,149,160); stroke-width: 1; stroke-dasharray: none; stroke-linecap: round; stroke-dashoffset: 0; stroke-linejoin: round; stroke-miterlimit: 4; fill: none; fill-rule: nonzero; opacity: 1;"  transform=" translate(-353.38, -157.88)" d="M 351.53 154.35 C 351.53 154.35 355.32 158.78 355.21999999999997 161.41" stroke-linecap="round" /></g><g transform="matrix(1 0 0 1 91.3 -19.36)" id="c"  ><path style="stroke: rgb(144,149,160); stroke-width: 1; stroke-dasharray: none; stroke-linecap: round; stroke-dashoffset: 0; stroke-linejoin: round; stroke-miterlimit: 4; fill: none; fill-rule: nonzero; opacity: 1;"  transform=" translate(-299.6, -151.43)" d="M 295.69 153.87 C 295.69 153.87 299.12 149.3 303.51 148.99" stroke-linecap="round" /></g><g transform="matrix(1 0 0 1 -53.05 -81.05)" id="c"  ><path style="stroke: rgb(144,149,160); stroke-width: 1; stroke-dasharray: none; stroke-linecap: round; stroke-dashoffset: 0; stroke-linejoin: round; stroke-miterlimit: 4; fill: none; fill-rule: nonzero; opacity: 1;"  transform=" translate(-155.25, -89.74)" d="M 151.04 93.43 C 151.04 93.43 153.04 87.19000000000001 159.45999999999998 86.05000000000001" stroke-linecap="round" /></g><g transform="matrix(1 0 0 1 -52.61 59.78)" id="c"  ><path style="stroke: rgb(144,149,160); stroke-width: 1; stroke-dasharray: none; stroke-linecap: round; stroke-dashoffset: 0; stroke-linejoin: round; stroke-miterlimit: 4; fill: none; fill-rule: nonzero; opacity: 1;"  transform=" translate(-155.69, -230.58)" d="M 168.43 188.1 C 161.62 206.12 137.44 230.19 144.10000000000002 273.06" stroke-linecap="round" /></g><g transform="matrix(1 0 0 1 18.59 7.47)" id="c"  ><path style="stroke: rgb(144,149,160); stroke-width: 1; stroke-dasharray: none; stroke-linecap: round; stroke-dashoffset: 0; stroke-linejoin: round; stroke-miterlimit: 4; fill: none; fill-rule: nonzero; opacity: 1;"  transform=" translate(-226.89, -178.27)" d="M 190.79 237.11 C 208.98 201.78000000000003 243.24 157.92000000000002 262.99 119.42000000000002" stroke-linecap="round" /></g><g transform="matrix(1 0 0 1 -21.31 6.86)" id="c"  ><path style="stroke: rgb(144,149,160); stroke-width: 1; stroke-dasharray: none; stroke-linecap: round; stroke-dashoffset: 0; stroke-linejoin: round; stroke-miterlimit: 4; fill: none; fill-rule: nonzero; opacity: 1;"  transform=" translate(-186.99, -177.66)" d="M 158.36 160.78 C 158.36 160.78 202.52 192.98000000000002 215.62 194.53" stroke-linecap="round" /></g><g transform="matrix(1 0 0 1 -24.28 -75.02)" id="c"  ><path style="stroke: rgb(144,149,160); stroke-width: 1; stroke-dasharray: none; stroke-linecap: round; stroke-dashoffset: 0; stroke-linejoin: round; stroke-miterlimit: 4; fill: none; fill-rule: nonzero; opacity: 1;"  transform=" translate(-184.02, -95.78)" d="M 181.32 81.53 C 181.32 81.53 181.28 101.74000000000001 186.73 110.02" stroke-linecap="round" /></g><g transform="matrix(1 0 0 1 60.43 -36.57)" id="c"  ><path style="stroke: rgb(144,149,160); stroke-width: 1; stroke-dasharray: none; stroke-linecap: round; stroke-dashoffset: 0; stroke-linejoin: round; stroke-miterlimit: 4; fill: none; fill-rule: nonzero; opacity: 1;"  transform=" translate(-268.73, -134.22)" d="M 278.64 121.31 C 277.25 129.64000000000001 258.81 147.13 258.81 147.13" stroke-linecap="round" /></g><g transform="matrix(1 0 0 1 -67.22 51.62)" id="c"  ><path style="stroke: none; stroke-width: 1; stroke-dasharray: none; stroke-linecap: butt; stroke-dashoffset: 0; stroke-linejoin: miter; stroke-miterlimit: 4; fill: rgb(144,149,160); fill-rule: nonzero; opacity: 1;"  transform=" translate(-141.08, -222.41)" d="M 141.08 219.79 C 144.48000000000002 219.73999999999998 144.48000000000002 225.09 141.08 225.04 C 137.68 225.09 137.68 219.73999999999998 141.08 219.79 Z" stroke-linecap="round" /></g><g transform="matrix(1 0 0 1 35.81 33.62)" id="c"  ><path style="stroke: rgb(144,149,160); stroke-width: 1; stroke-dasharray: none; stroke-linecap: round; stroke-dashoffset: 0; stroke-linejoin: round; stroke-miterlimit: 4; fill: none; fill-rule: nonzero; opacity: 1;"  transform=" translate(-244.11, -204.41)" d="M 103.38 107.53 C 26.83 78.25 217.92000000000002 365.5 265.41999999999996 291.02 C 276.21 250.14 237.20999999999995 239.80999999999997 251.71999999999997 255.82 C 275.03999999999996 294.84 447.15 274.33 391.83 205.62" stroke-linecap="round" /></g><g transform="matrix(1 0 0 1 -36.43 -115.28)" id="c"  ><path style="stroke: none; stroke-width: 1; stroke-dasharray: none; stroke-linecap: butt; stroke-dashoffset: 0; stroke-linejoin: miter; stroke-miterlimit: 4; fill: rgb(99,106,232); fill-rule: nonzero; opacity: 1;"  transform=" translate(-171.87, -55.52)" d="M 171.87 49.89 C 179.17000000000002 49.78 179.17000000000002 61.25 171.87 61.14 C 164.57 61.25 164.57 49.78 171.87 49.89 Z" stroke-linecap="round" /></g><g transform="matrix(1 0 0 1 164.15 15.07)" id="c"  ><path style="stroke: none; stroke-width: 1; stroke-dasharray: none; stroke-linecap: butt; stroke-dashoffset: 0; stroke-linejoin: miter; stroke-miterlimit: 4; fill: rgb(14,18,94); fill-rule: nonzero; opacity: 1;"  transform=" translate(-372.45, -185.86)" d="M 356.98 205.61 L 330.39000000000004 193.13000000000002 C 328.24000000000007 192.12000000000003 328.28000000000003 189.06000000000003 330.45000000000005 188.11 L 379.9200000000001 166.35000000000002 C 380.62000000000006 166.04000000000002 381.4200000000001 166.04000000000002 382.12000000000006 166.34000000000003 L 416.1000000000001 180.92000000000004 L 356.99000000000007 205.61000000000004 Z" stroke-linecap="round" /></g><g transform="matrix(1 0 0 1 177.35 -0.14)" id="c"  ><path style="stroke: none; stroke-width: 1; stroke-dasharray: none; stroke-linecap: butt; stroke-dashoffset: 0; stroke-linejoin: miter; stroke-miterlimit: 4; fill: rgb(222,225,230); fill-rule: nonzero; opacity: 1;"  transform=" translate(-385.65, -170.65)" d="M 355.34 164.6 C 355.40999999999997 175.6 356.98999999999995 205.60999999999999 356.98999999999995 205.60999999999999 L 416.09999999999997 180.92 L 414.77 139.17 C 414.69 136.60999999999999 412.03 134.95 409.69 136.01999999999998 C 406.94 138.82999999999998 352.12 158.29 355.33 164.60999999999999 Z" stroke-linecap="round" /></g><g transform="matrix(1 0 0 1 178.24 -0.12)" id="c"  ><path style="stroke: rgb(144,149,160); stroke-width: 1; stroke-dasharray: none; stroke-linecap: round; stroke-dashoffset: 0; stroke-linejoin: round; stroke-miterlimit: 4; fill: none; fill-rule: nonzero; opacity: 1;"  transform=" translate(-386.54, -170.68)" d="M 356.98 205.61 L 416.09000000000003 180.92000000000002 L 414.76000000000005 139.17000000000002 C 414.76000000000005 139.17000000000002 414.37000000000006 134.61 409.68000000000006 136.02" stroke-linecap="round" /></g><g transform="matrix(1 0 0 1 179.29 0.09)" id="c"  ><line style="stroke: rgb(144,149,160); stroke-width: 1; stroke-dasharray: none; stroke-linecap: round; stroke-dashoffset: 0; stroke-linejoin: round; stroke-miterlimit: 4; fill: none; fill-rule: nonzero; opacity: 1;"  x1="-2" y1="4.715000000000003" x2="2" y2="-4.715000000000003" /></g><g transform="matrix(1 0 0 1 183.28 0.09)" id="c"  ><line style="stroke: rgb(144,149,160); stroke-width: 1; stroke-dasharray: none; stroke-linecap: round; stroke-dashoffset: 0; stroke-linejoin: round; stroke-miterlimit: 4; fill: none; fill-rule: nonzero; opacity: 1;"  x1="-1.9950000000000045" y1="4.715000000000003" x2="1.9950000000000045" y2="-4.715000000000003" /></g><g transform="matrix(1 0 0 1 -127.86 105.24)" id="c"  ><path style="stroke: none; stroke-width: 1; stroke-dasharray: none; stroke-linecap: butt; stroke-dashoffset: 0; stroke-linejoin: miter; stroke-miterlimit: 4; fill: rgb(99,106,232); fill-rule: nonzero; opacity: 1;"  transform=" translate(-80.44, -276.03)" d="M 80.44 273.56 C 83.64999999999999 273.51 83.64999999999999 278.55 80.44 278.51 C 77.23 278.56 77.23 273.52 80.44 273.56 Z" stroke-linecap="round" /></g><g transform="matrix(1 0 0 1 80.67 117.49)" id="c"  ><path style="stroke: none; stroke-width: 1; stroke-dasharray: none; stroke-linecap: butt; stroke-dashoffset: 0; stroke-linejoin: miter; stroke-miterlimit: 4; fill: rgb(99,106,232); fill-rule: nonzero; opacity: 1;"  transform=" translate(-288.97, -288.29)" d="M 288.97 284.85 C 293.43 284.78000000000003 293.43 291.79 288.97 291.72 C 284.51000000000005 291.79 284.51000000000005 284.78000000000003 288.97 284.85 Z" stroke-linecap="round" /></g><g transform="matrix(1 0 0 1 -89.07 155.53)" id="c"  ><path style="stroke: none; stroke-width: 1; stroke-dasharray: none; stroke-linecap: butt; stroke-dashoffset: 0; stroke-linejoin: miter; stroke-miterlimit: 4; fill: rgb(248,206,219); fill-rule: nonzero; opacity: 1;"  transform=" translate(-119.23, -326.33)" d="M 106.07 312.7 C 110.1 314.63 121.8 319.5 137.29999999999998 319.4 C 138.14999999999998 319.4 138.79999999999998 320.14 138.7 320.98999999999995 C 138.22 321.74999999999994 137.32 340.02 135.39999999999998 339.3299999999999 C 132.15999999999997 339.99999999999994 109.40999999999998 342.9199999999999 99.73999999999998 329.94999999999993 L 104.09999999999998 313.61999999999995 C 104.32999999999998 312.7699999999999 105.26999999999998 312.3299999999999 106.06999999999998 312.7099999999999 Z" stroke-linecap="round" /></g><g transform="matrix(1 0 0 1 -86.81 153.03)" id="c"  ><path style="stroke: rgb(144,149,160); stroke-width: 1; stroke-dasharray: none; stroke-linecap: round; stroke-dashoffset: 0; stroke-linejoin: round; stroke-miterlimit: 4; fill: none; fill-rule: nonzero; opacity: 1;"  transform=" translate(-121.49, -323.82)" d="M 107.62 317.73 C 119.47 334.54 118.4 331.70000000000005 135.36 322.76" stroke-linecap="round" /></g><g transform="matrix(1 0 0 1 -79.15 161.81)" id="c"  ><line style="stroke: rgb(144,149,160); stroke-width: 1; stroke-dasharray: none; stroke-linecap: round; stroke-dashoffset: 0; stroke-linejoin: round; stroke-miterlimit: 4; fill: none; fill-rule: nonzero; opacity: 1;"  x1="-4.0049999999999955" y1="-4.115000000000009" x2="4.0049999999999955" y2="4.115000000000009" /></g><g transform="matrix(1 0 0 1 -98.97 157.38)" id="c"  ><line style="stroke: rgb(144,149,160); stroke-width: 1; stroke-dasharray: none; stroke-linecap: round; stroke-dashoffset: 0; stroke-linejoin: round; stroke-miterlimit: 4; fill: none; fill-rule: nonzero; opacity: 1;"  x1="4.684999999999995" y1="-1.2750000000000057" x2="-4.684999999999995" y2="1.2750000000000057" /></g><g transform="matrix(1 0 0 1 138.54 -56.22)" id="c"  ><rect style="stroke: none; stroke-width: 1; stroke-dasharray: none; stroke-linecap: butt; stroke-dashoffset: 0; stroke-linejoin: miter; stroke-miterlimit: 4; fill: rgb(171,174,242); fill-rule: nonzero; opacity: 1;"  x="-4.475" y="-4.475" rx="0" ry="0" width="8.95" height="8.95" /></g><g transform="matrix(1 0 0 1 135.28 64.61)" id="c"  ><path style="stroke: none; stroke-width: 1; stroke-dasharray: none; stroke-linecap: butt; stroke-dashoffset: 0; stroke-linejoin: miter; stroke-miterlimit: 4; fill: rgb(243,170,193); fill-rule: nonzero; opacity: 1;"  transform=" translate(-343.58, -235.41)" d="M 343.58 230.8 C 344.90999999999997 233.10000000000002 347.57 237.72 348.9 240.01000000000002 L 338.26 240.01000000000002 C 339.58 237.71 342.25 233.09000000000003 343.58 230.8 Z" stroke-linecap="round" /></g><g transform="matrix(1 0 0 1 -56.46 -155.82)" id="c"  ><path style="stroke: rgb(144,149,160); stroke-width: 1; stroke-dasharray: none; stroke-linecap: round; stroke-dashoffset: 0; stroke-linejoin: round; stroke-miterlimit: 4; fill: none; fill-rule: nonzero; opacity: 1;"  transform=" translate(-151.84, -14.97)" d="M 128.52 26.72 L 129.21 5.809999999999999 C 129.14000000000001 3.8599999999999985 129.93 3.239999999999999 131.13 2.969999999999999 C 136.81 1.7099999999999989 154.07999999999998 -2.1400000000000015 172.85999999999999 3.419999999999999 C 175.29 4.139999999999999 175.20999999999998 5.419999999999999 175.17 6.579999999999999 L 174.5 26.52 C 174.45 27.98 172.92 29.04 171.21 28.79 C 165.73000000000002 27.99 158.27 27.74 150.69 27.8 C 142.85999999999999 27.87 135.89 28.45 131.01 29.39 C 129.14999999999998 29.75 128.45 28.36 128.5 26.73 Z" stroke-linecap="round" /></g><g transform="matrix(1 0 0 1 -61.94 -153.52)" id="c"  ><path style="stroke: rgb(144,149,160); stroke-width: 1; stroke-dasharray: none; stroke-linecap: round; stroke-dashoffset: 0; stroke-linejoin: round; stroke-miterlimit: 4; fill: none; fill-rule: nonzero; opacity: 1;"  transform=" translate(-146.36, -17.27)" d="M 134.84 23.67 L 145.77 10.870000000000001 L 157.87 22.810000000000002 C 153.70000000000002 21.450000000000003 134.84 23.67 134.84 23.67 Z" stroke-linecap="round" /></g><g transform="matrix(1 0 0 1 -47.54 -154.26)" id="c"  ><polyline style="stroke: rgb(144,149,160); stroke-width: 1; stroke-dasharray: none; stroke-linecap: round; stroke-dashoffset: 0; stroke-linejoin: round; stroke-miterlimit: 4; fill: none; fill-rule: nonzero; opacity: 1;"  points="-8.28,0.25 0.55,-6.81 8,-1.5 8.28,6.82 -2.88,6.27 " /></g><g transform="matrix(1 0 0 1 -70.83 -161.07)" id="c"  ><path style="stroke: rgb(144,149,160); stroke-width: 1; stroke-dasharray: none; stroke-linecap: round; stroke-dashoffset: 0; stroke-linejoin: round; stroke-miterlimit: 4; fill: none; fill-rule: nonzero; opacity: 1;"  transform=" translate(-137.47, -9.72)" d="M 135.33 9.51 C 135.52 7.15 139.89000000000001 7.59 139.61 9.94 C 139.42000000000002 12.299999999999999 135.05 11.86 135.33 9.51 Z" stroke-linecap="round" /></g><g transform="matrix(1 0 0 1 120.86 142.73)" id="c"  ><path style="stroke: rgb(144,149,160); stroke-width: 1; stroke-dasharray: none; stroke-linecap: round; stroke-dashoffset: 0; stroke-linejoin: round; stroke-miterlimit: 4; fill: none; fill-rule: nonzero; opacity: 1;"  transform=" translate(-329.16, -313.52)" d="M 339.92 298.42 L 347.25 311.96000000000004 C 348.02 313.17 347.75 313.86 347.08 314.48 C 343.94 317.39000000000004 334.4 326.25 320.40999999999997 329.71000000000004 C 318.59999999999997 330.16 318.16999999999996 329.31000000000006 317.77 328.56000000000006 L 310.78999999999996 315.65000000000003 C 310.28 314.70000000000005 310.85999999999996 313.46000000000004 312.03 312.98 C 319.14 310.08000000000004 331.78 302.59000000000003 337.34 297.66 C 338.39 296.74 339.34999999999997 297.36 339.91999999999996 298.42 Z" stroke-linecap="round" /></g><g transform="matrix(1 0 0 1 121.58 138.02)" id="c"  ><path style="stroke: rgb(144,149,160); stroke-width: 1; stroke-dasharray: none; stroke-linecap: round; stroke-dashoffset: 0; stroke-linejoin: round; stroke-miterlimit: 4; fill: none; fill-rule: nonzero; opacity: 1;"  transform=" translate(-329.88, -308.82)" d="M 337.04 302.72 L 334.85 314.91 L 322.72 311.82000000000005 C 325.88000000000005 311.13000000000005 337.03000000000003 302.72 337.03000000000003 302.72 Z" stroke-linecap="round" /></g><g transform="matrix(1 0 0 1 113.61 145.83)" id="c"  ><polyline style="stroke: rgb(144,149,160); stroke-width: 1; stroke-dasharray: none; stroke-linecap: round; stroke-dashoffset: 0; stroke-linejoin: round; stroke-miterlimit: 4; fill: none; fill-rule: nonzero; opacity: 1;"  points="6.48,-2.98 3.5,4.8 -3.21,4.19 -6.48,-0.99 0.81,-4.8 " /></g><g transform="matrix(1 0 0 1 132.26 141.78)" id="c"  ><path style="stroke: rgb(144,149,160); stroke-width: 1; stroke-dasharray: none; stroke-linecap: round; stroke-dashoffset: 0; stroke-linejoin: round; stroke-miterlimit: 4; fill: none; fill-rule: nonzero; opacity: 1;"  transform=" translate(-340.56, -312.57)" d="M 340 311.35 C 341.86 310.47 343 312.96000000000004 341.12 313.79 C 339.26 314.67 338.12 312.18 340 311.35 Z" stroke-linecap="round" /></g><g transform="matrix(1 0 0 1 -137.49 -32.98)" id="c"  ><path style="stroke: rgb(144,149,160); stroke-width: 1; stroke-dasharray: none; stroke-linecap: round; stroke-dashoffset: 0; stroke-linejoin: round; stroke-miterlimit: 4; fill: none; fill-rule: nonzero; opacity: 1;"  transform=" translate(-70.81, -137.81)" d="M 95.94 63.06 C 3.98 24.93 -66.82 98.35 106.53 210.78 C 120.18 219.63 141.11 222.74 141.11 222.74" stroke-linecap="round" /></g><g transform="matrix(1 0 0 1 -131.3 -20.48)" id="c"  ><path style="stroke: none; stroke-width: 1; stroke-dasharray: none; stroke-linecap: butt; stroke-dashoffset: 0; stroke-linejoin: miter; stroke-miterlimit: 4; fill: rgb(171,174,242); fill-rule: nonzero; opacity: 1;"  transform=" translate(-77, -150.31)" d="M 79.26 171.65 C 65.78 161.95000000000002 52.550000000000004 146.87 58.35000000000001 131.39000000000001 C 68.48 123.75000000000001 89.23 136.32000000000002 97.06 140.68 L 79.25 171.65 Z" stroke-linecap="round" /></g><g transform="matrix(1 0 0 1 -139.74 14.02)" id="c"  ><path style="stroke: none; stroke-width: 1; stroke-dasharray: none; stroke-linecap: butt; stroke-dashoffset: 0; stroke-linejoin: miter; stroke-miterlimit: 4; fill: rgb(171,174,242); fill-rule: nonzero; opacity: 1;"  transform=" translate(-68.56, -184.81)" d="M 54.29 143.02 C 55.699999999999996 159.07000000000002 80.08 179.15 97.52 184.9 L 72.47 234.29000000000002 C 32 214.98000000000002 28.869999999999997 181.8 54.29 143.02000000000004 M 58.35 131.39000000000004 C 31.970000000000002 166.05000000000004 18.39 214.91000000000003 73.84 238.24000000000004 L 101.72 183.26000000000005 C 81.38 176.16000000000005 50.589999999999996 155.42000000000004 58.36 131.38000000000005 L 58.36 131.38000000000005 Z" stroke-linecap="round" /></g><g transform="matrix(1 0 0 1 -148.87 -4.97)" id="c"  ><path style="stroke: rgb(144,149,160); stroke-width: 1; stroke-dasharray: none; stroke-linecap: round; stroke-dashoffset: 0; stroke-linejoin: round; stroke-miterlimit: 4; fill: none; fill-rule: nonzero; opacity: 1;"  transform=" translate(-59.43, -165.83)" d="M 50.82 153.89 C 50.82 153.89 52.49 169.44 68.03999999999999 177.76999999999998" stroke-linecap="round" /></g><g transform="matrix(1 0 0 1 -124.16 16.7)" id="c"  ><line style="stroke: rgb(144,149,160); stroke-width: 1; stroke-dasharray: none; stroke-linecap: round; stroke-dashoffset: 0; stroke-linejoin: round; stroke-miterlimit: 4; fill: none; fill-rule: nonzero; opacity: 1;"  x1="-7.774999999999999" y1="-4.164999999999992" x2="7.774999999999999" y2="4.164999999999992" /></g><g transform="matrix(1 0 0 1 -144.71 14.48)" id="c"  ><path style="stroke: rgb(144,149,160); stroke-width: 1; stroke-dasharray: none; stroke-linecap: round; stroke-dashoffset: 0; stroke-linejoin: round; stroke-miterlimit: 4; fill: none; fill-rule: nonzero; opacity: 1;"  transform=" translate(-63.59, -185.28)" d="M 53.04 176.11 C 53.04 176.11 58.04 187.22000000000003 74.15 194.44" stroke-linecap="round" /></g><g transform="matrix(1 0 0 1 -163.88 14.75)" id="c"  ><path style="stroke: rgb(144,149,160); stroke-width: 1; stroke-dasharray: none; stroke-linecap: round; stroke-dashoffset: 0; stroke-linejoin: round; stroke-miterlimit: 4; fill: none; fill-rule: nonzero; opacity: 1;"  transform=" translate(-44.42, -185.55)" d="M 40.26 177.77 C 40.26 177.77 40.809999999999995 189.43 48.589999999999996 193.32000000000002" stroke-linecap="round" /></g><g transform="matrix(1 0 0 1 -139.66 -16.36)" id="c"  ><path style="stroke: rgb(144,149,160); stroke-width: 1; stroke-dasharray: none; stroke-linecap: round; stroke-dashoffset: 0; stroke-linejoin: round; stroke-miterlimit: 4; fill: none; fill-rule: nonzero; opacity: 1;"  transform=" translate(-68.64, -154.44)" d="M 58.04 137.22 C 58.04 137.22 56.6 152.2 79.25999999999999 171.65" stroke-linecap="round" /></g><g transform="matrix(1 0 0 1 -133.05 -27.19)" id="c"  ><path style="stroke: rgb(144,149,160); stroke-width: 1; stroke-dasharray: none; stroke-linecap: round; stroke-dashoffset: 0; stroke-linejoin: round; stroke-miterlimit: 4; fill: none; fill-rule: nonzero; opacity: 1;"  transform=" translate(-75.25, -143.61)" d="M 66.37 140 C 66.37 140 73.59 139.45 84.14 147.22" stroke-linecap="round" /></g><g transform="matrix(1 0 0 1 -156.19 42.8)" id="c"  ><path style="stroke: rgb(144,149,160); stroke-width: 1; stroke-dasharray: none; stroke-linecap: round; stroke-dashoffset: 0; stroke-linejoin: round; stroke-miterlimit: 4; fill: none; fill-rule: nonzero; opacity: 1;"  transform=" translate(-52.11, -213.6)" d="M 32.41 187.83 C 31.949999999999996 195.26000000000002 32.87 222.19 71.87 239.36" stroke-linecap="round" /></g><g transform="matrix(1 0 0 1 76.26 27.75)" id="c"  ><path style="stroke: none; stroke-width: 1; stroke-dasharray: none; stroke-linecap: butt; stroke-dashoffset: 0; stroke-linejoin: miter; stroke-miterlimit: 4; fill: rgb(188,191,245); fill-rule: nonzero; opacity: 1;"  transform=" translate(-284.56, -198.55)" d="M 281.44 172.85 L 264.9 206 C 264.9 206 276.12 210.13 267.34999999999997 222.99 C 302.28 232.22 322.36999999999995 188.20000000000002 281.43999999999994 172.85000000000002 Z" stroke-linecap="round" /></g><g transform="matrix(1 0 0 1 50.19 71.78)" id="c"  ><path style="stroke: none; stroke-width: 1; stroke-dasharray: none; stroke-linecap: butt; stroke-dashoffset: 0; stroke-linejoin: miter; stroke-miterlimit: 4; fill: rgb(99,106,232); fill-rule: nonzero; opacity: 1;"  transform=" translate(-258.49, -242.57)" d="M 248.75 214.82 C 262.05 222.73999999999998 270.57 232.54 288.93 225.07999999999998 C 273.41 250.32 260.21000000000004 291.39 219.3 263.59999999999997 L 248.75 214.81999999999996 M 301.65999999999997 209.24999999999997 C 292.13 225.18999999999997 277.61999999999995 226.53999999999996 267.34999999999997 222.98999999999998 L 247.75999999999996 210.64999999999998 L 215.32999999999996 264.38 C 266.02 301.97 281.64 237.95999999999998 301.65999999999997 209.25 L 301.65999999999997 209.25 Z" stroke-linecap="round" /></g><g transform="matrix(1 0 0 1 59.74 43.7)" id="c"  ><path style="stroke: rgb(144,149,160); stroke-width: 1; stroke-dasharray: none; stroke-linecap: round; stroke-dashoffset: 0; stroke-linejoin: round; stroke-miterlimit: 4; fill: none; fill-rule: nonzero; opacity: 1;"  transform=" translate(-268.04, -214.5)" d="M 264.9 206 C 264.9 206 277.23999999999995 210.36 267.34999999999997 222.99" stroke-linecap="round" /></g><g transform="matrix(1 0 0 1 65.45 46.35)" id="c"  ><path style="stroke: rgb(144,149,160); stroke-width: 1; stroke-dasharray: none; stroke-linecap: round; stroke-dashoffset: 0; stroke-linejoin: round; stroke-miterlimit: 4; fill: none; fill-rule: nonzero; opacity: 1;"  transform=" translate(-273.75, -217.15)" d="M 247.37 209.5 C 247.37 209.5 264.18 224.89 273.48 224.79 C 282.78000000000003 224.69 293.69 222.47 300.13 211.37" stroke-linecap="round" /></g><g transform="matrix(1 0 0 1 53.35 62.43)" id="c"  ><path style="stroke: rgb(144,149,160); stroke-width: 1; stroke-dasharray: none; stroke-linecap: round; stroke-dashoffset: 0; stroke-linejoin: round; stroke-miterlimit: 4; fill: none; fill-rule: nonzero; opacity: 1;"  transform=" translate(-261.65, -233.22)" d="M 249.44 229.42 C 249.44 229.42 260.96999999999997 239.66 273.87 236.36999999999998" stroke-linecap="round" /></g><g transform="matrix(1 0 0 1 60.5 74.97)" id="c"  ><path style="stroke: rgb(144,149,160); stroke-width: 1; stroke-dasharray: none; stroke-linecap: round; stroke-dashoffset: 0; stroke-linejoin: round; stroke-miterlimit: 4; fill: none; fill-rule: nonzero; opacity: 1;"  transform=" translate(-268.81, -245.77)" d="M 261.55 244.72 C 261.55 244.72 267.6 249.26 276.06 244.97" stroke-linecap="round" /></g><g transform="matrix(1 0 0 1 43.38 84.17)" id="c"  ><path style="stroke: rgb(144,149,160); stroke-width: 1; stroke-dasharray: none; stroke-linecap: round; stroke-dashoffset: 0; stroke-linejoin: round; stroke-miterlimit: 4; fill: none; fill-rule: nonzero; opacity: 1;"  transform=" translate(-251.69, -254.97)" d="M 233.71 251.04 C 233.71 251.04 247.68 264.93 269.66 255.76999999999998" stroke-linecap="round" /></g><g transform="matrix(1 0 0 1 37.64 69.38)" id="c"  ><path style="stroke: rgb(144,149,160); stroke-width: 1; stroke-dasharray: none; stroke-linecap: round; stroke-dashoffset: 0; stroke-linejoin: round; stroke-miterlimit: 4; fill: none; fill-rule: nonzero; opacity: 1;"  transform=" translate(-245.94, -240.18)" d="M 241.31 237.49 C 241.31 237.49 247.01 241.56 250.58 242.86" stroke-linecap="round" /></g><g transform="matrix(1 0 0 1 83.12 22.17)" id="c"  ><path style="stroke: rgb(144,149,160); stroke-width: 1; stroke-dasharray: none; stroke-linecap: round; stroke-dashoffset: 0; stroke-linejoin: round; stroke-miterlimit: 4; fill: none; fill-rule: nonzero; opacity: 1;"  transform=" translate(-291.42, -192.97)" d="M 284.28 182.47 C 284.28 182.47 297.03 186.64 298.55999999999995 203.46" stroke-linecap="round" /></g><g transform="matrix(1 0 0 1 81.23 41.55)" id="c"  ><path style="stroke: rgb(144,149,160); stroke-width: 1; stroke-dasharray: none; stroke-linecap: round; stroke-dashoffset: 0; stroke-linejoin: round; stroke-miterlimit: 4; fill: none; fill-rule: nonzero; opacity: 1;"  transform=" translate(-289.53, -212.34)" d="M 290.69 203.26 C 290.69 203.26 296.56 212.34 286.64 221.43" stroke-linecap="round" /></g><g transform="matrix(1 0 0 1 35.83 99.27)" id="c"  ><path style="stroke: rgb(144,149,160); stroke-width: 1; stroke-dasharray: none; stroke-linecap: round; stroke-dashoffset: 0; stroke-linejoin: round; stroke-miterlimit: 4; fill: none; fill-rule: nonzero; opacity: 1;"  transform=" translate(-244.13, -270.06)" d="M 216.51 266.92 C 216.51 266.92 248.51999999999998 294.34000000000003 271.76 262.28000000000003" stroke-linecap="round" /></g></g></g></svg>