<svg viewBox = "0 0 305.17 271.09" width="305.17" height="271.09" xmlns="http://www.w3.org/2000/svg"><g transform="matrix(1 0 0 1 152.59 135.54)"  ><g style=""   ><g transform="matrix(1 0 0 1 57.85 -61.65)" id="d"  ><path style="stroke: none; stroke-width: 1; stroke-dasharray: none; stroke-linecap: butt; stroke-dashoffset: 0; stroke-linejoin: miter; stroke-miterlimit: 4; fill: rgb(255,211,165); fill-rule: nonzero; opacity: 1;"  transform=" translate(-210.44, -73.89)" d="M 228.73 51.65 C 225.51999999999998 79.47999999999999 223.17 91.53999999999999 193.14 96.62 L 192.14999999999998 92.83 C 219.42999999999998 83.03 216.78999999999996 78.25 220.82999999999998 51.16 L 228.73 51.65 Z" stroke-linecap="round" /></g><g transform="matrix(1 0 0 1 72.79 -83.53)" id="d"  ><path style="stroke: none; stroke-width: 1; stroke-dasharray: none; stroke-linecap: butt; stroke-dashoffset: 0; stroke-linejoin: miter; stroke-miterlimit: 4; fill: rgb(99,106,232); fill-rule: nonzero; opacity: 1;"  transform=" translate(-225.38, -52.02)" d="M 223.34 42.22 C 220.15 43.03 217.92000000000002 56.16 217.92000000000002 56.16 L 226.71 62.14 C 229.77 57.67 240.5 39.24 223.34 42.22 Z" stroke-linecap="round" /></g><g transform="matrix(1 0 0 1 72.79 -83.53)" id="d"  ><path style="stroke: none; stroke-width: 1; stroke-dasharray: none; stroke-linecap: butt; stroke-dashoffset: 0; stroke-linejoin: miter; stroke-miterlimit: 4; fill: rgb(0,0,0); fill-rule: nonzero; opacity: 0.3;"  transform=" translate(-225.38, -52.02)" d="M 223.34 42.22 C 220.15 43.03 217.92000000000002 56.16 217.92000000000002 56.16 L 226.71 62.14 C 229.77 57.67 240.5 39.24 223.34 42.22 Z" stroke-linecap="round" /></g><g transform="matrix(1 0 0 1 71.06 -82.1)" id="d"  ><polygon style="stroke: none; stroke-width: 1; stroke-dasharray: none; stroke-linecap: butt; stroke-dashoffset: 0; stroke-linejoin: miter; stroke-miterlimit: 4; fill: rgb(99,106,232); fill-rule: nonzero; opacity: 1;"  points="-0.02,-8.29 -2.47,4.94 2.47,8.29 -0.02,-8.29 " /></g><g transform="matrix(1 0 0 1 71.06 -82.1)" id="d"  ><polygon style="stroke: none; stroke-width: 1; stroke-dasharray: none; stroke-linecap: butt; stroke-dashoffset: 0; stroke-linejoin: miter; stroke-miterlimit: 4; fill: rgb(0,0,0); fill-rule: nonzero; opacity: 0.5;"  points="-0.02,-8.29 -2.47,4.94 2.47,8.29 -0.02,-8.29 " /></g><g transform="matrix(1 0 0 1 38.5 -43.65)" id="d"  ><path style="stroke: none; stroke-width: 1; stroke-dasharray: none; stroke-linecap: butt; stroke-dashoffset: 0; stroke-linejoin: miter; stroke-miterlimit: 4; fill: rgb(255,211,165); fill-rule: nonzero; opacity: 1;"  transform=" translate(-191.09, -91.9)" d="M 193.82 92.67 L 188.32999999999998 87.11 L 187.60999999999999 94.95 C 187.60999999999999 94.95 191.73 97.74000000000001 194.57 96.24000000000001 L 193.82 92.68 Z" stroke-linecap="round" /></g><g transform="matrix(1 0 0 1 32.39 -44.94)" id="d"  ><polygon style="stroke: none; stroke-width: 1; stroke-dasharray: none; stroke-linecap: butt; stroke-dashoffset: 0; stroke-linejoin: miter; stroke-miterlimit: 4; fill: rgb(255,211,165); fill-rule: nonzero; opacity: 1;"  points="-3.1,-4.33 -3.35,2.27 2.63,4.34 3.35,-3.5 -3.1,-4.33 " /></g><g transform="matrix(1 0 0 1 83.89 118.64)" id="d"  ><polygon style="stroke: none; stroke-width: 1; stroke-dasharray: none; stroke-linecap: butt; stroke-dashoffset: 0; stroke-linejoin: miter; stroke-miterlimit: 4; fill: rgb(255,211,165); fill-rule: nonzero; opacity: 1;"  points="4.13,8.96 -3.61,8.96 -4.13,-8.96 3.62,-8.96 4.13,8.96 " /></g><g transform="matrix(1 0 0 1 139.05 94.09)" id="d"  ><polygon style="stroke: none; stroke-width: 1; stroke-dasharray: none; stroke-linecap: butt; stroke-dashoffset: 0; stroke-linejoin: miter; stroke-miterlimit: 4; fill: rgb(255,211,165); fill-rule: nonzero; opacity: 1;"  points="8.8,5.39 2.01,9.12 -8.8,-5.39 -2.01,-9.12 8.8,5.39 " /></g><g transform="matrix(1 0 0 1 143.48 105.99)" id="d"  ><path style="stroke: none; stroke-width: 1; stroke-dasharray: none; stroke-linecap: butt; stroke-dashoffset: 0; stroke-linejoin: miter; stroke-miterlimit: 4; fill: rgb(38,50,56); fill-rule: nonzero; opacity: 1;"  transform=" translate(-296.06, -241.54)" d="M 292.19 237.83 C 292.62 237.78 299.53 231.53 299.92 232.61 C 300.45 233.69000000000003 306.91 237.85000000000002 304.72 239.33 C 300.14000000000004 242.43 295.87 245.84 290.93 249.86 C 288.40000000000003 251.79000000000002 286.26 249.38000000000002 287.16 248.33 C 292.06 242.98000000000002 290.04 241.12 292.19 237.84 Z" stroke-linecap="round" /></g><g transform="matrix(1 0 0 1 78.85 131.1)" id="d"  ><path style="stroke: none; stroke-width: 1; stroke-dasharray: none; stroke-linecap: butt; stroke-dashoffset: 0; stroke-linejoin: miter; stroke-miterlimit: 4; fill: rgb(38,50,56); fill-rule: nonzero; opacity: 1;"  transform=" translate(-231.44, -266.64)" d="M 232.6 262.25 C 232.97 262.47 242.25 261.68 241.91 262.78 C 243.79 273.64 243.48 270.64 233.34 270.80999999999995 C 231.46 270.43999999999994 216.65 273.0199999999999 220.8 267.54999999999995 C 228 266.24999999999994 228.96 263.71 232.59 262.25999999999993 Z" stroke-linecap="round" /></g><g transform="matrix(1 0 0 1 83.76 114.3)" id="d"  ><polygon style="stroke: none; stroke-width: 1; stroke-dasharray: none; stroke-linecap: butt; stroke-dashoffset: 0; stroke-linejoin: miter; stroke-miterlimit: 4; fill: rgb(232,97,140); fill-rule: nonzero; opacity: 1;"  points="-4,-4.62 -3.74,4.62 4,4.62 3.74,-4.62 -4,-4.62 " /></g><g transform="matrix(1 0 0 1 136.43 90.57)" id="d"  ><polygon style="stroke: none; stroke-width: 1; stroke-dasharray: none; stroke-linecap: butt; stroke-dashoffset: 0; stroke-linejoin: miter; stroke-miterlimit: 4; fill: rgb(232,97,140); fill-rule: nonzero; opacity: 1;"  points="0.61,-5.61 -6.18,-1.88 -0.6,5.6 6.18,1.88 0.61,-5.61 " /></g><g transform="matrix(1 0 0 1 99.96 -113.09)" id="d"  ><path style="stroke: none; stroke-width: 1; stroke-dasharray: none; stroke-linecap: butt; stroke-dashoffset: 0; stroke-linejoin: miter; stroke-miterlimit: 4; fill: rgb(38,50,56); fill-rule: nonzero; opacity: 1;"  transform=" translate(-252.55, -22.46)" d="M 248.65 19.65 C 252.48000000000002 19.2 255.98000000000002 18.479999999999997 256.93 20.54 C 257.87 22.59 255.84 25.759999999999998 254.08 25.759999999999998 L 247.93 25.759999999999998 L 248.65 19.65 Z" stroke-linecap="round" /></g><g transform="matrix(1 0 0 1 97.76 -109.37)" id="d"  ><path style="stroke: none; stroke-width: 1; stroke-dasharray: none; stroke-linecap: butt; stroke-dashoffset: 0; stroke-linejoin: miter; stroke-miterlimit: 4; fill: rgb(38,50,56); fill-rule: nonzero; opacity: 1;"  transform=" translate(-250.34, -26.17)" d="M 247.56 22.5 C 251.38 23.04 254.95 23.23 255.34 25.46 C 255.73 27.69 252.96 30.240000000000002 251.26 29.79 C 249.55999999999997 29.339999999999996 245.31 28.23 245.31 28.23 L 247.56 22.5 Z" stroke-linecap="round" /></g><g transform="matrix(1 0 0 1 90.64 -70.97)" id="d"  ><path style="stroke: none; stroke-width: 1; stroke-dasharray: none; stroke-linecap: butt; stroke-dashoffset: 0; stroke-linejoin: miter; stroke-miterlimit: 4; fill: rgb(99,106,232); fill-rule: nonzero; opacity: 1;"  transform=" translate(-243.23, -64.58)" d="M 223.34 42.22 C 223.34 42.22 219.65 43.519999999999996 227.04 88.93 L 258.46999999999997 88.93 C 257.94 76.14000000000001 257.92999999999995 68.25 264.03999999999996 42.00000000000001 C 257.90999999999997 39.510000000000005 229.44999999999996 39.690000000000005 223.33999999999997 42.220000000000006 Z" stroke-linecap="round" /></g><g transform="matrix(1 0 0 1 90.64 -70.97)" id="d"  ><path style="stroke: none; stroke-width: 1; stroke-dasharray: none; stroke-linecap: butt; stroke-dashoffset: 0; stroke-linejoin: miter; stroke-miterlimit: 4; fill: rgb(0,0,0); fill-rule: nonzero; opacity: 0.3;"  transform=" translate(-243.23, -64.58)" d="M 223.34 42.22 C 223.34 42.22 219.65 43.519999999999996 227.04 88.93 L 258.46999999999997 88.93 C 257.94 76.14000000000001 257.92999999999995 68.25 264.03999999999996 42.00000000000001 C 257.90999999999997 39.510000000000005 229.44999999999996 39.690000000000005 223.33999999999997 42.220000000000006 Z" stroke-linecap="round" /></g><g transform="matrix(1 0 0 1 90.33 -101.02)" id="d"  ><path style="stroke: none; stroke-width: 1; stroke-dasharray: none; stroke-linecap: butt; stroke-dashoffset: 0; stroke-linejoin: miter; stroke-miterlimit: 4; fill: rgb(255,211,165); fill-rule: nonzero; opacity: 1;"  transform=" translate(-242.92, -34.52)" d="M 249.28 24.16 C 248.38 28.75 247.48 37.17 250.69 40.230000000000004 C 250.69 40.230000000000004 249.43 44.89 240.9 44.89 C 231.52 44.89 236.42000000000002 40.230000000000004 236.42000000000002 40.230000000000004 C 241.54000000000002 39.010000000000005 241.41000000000003 35.21000000000001 240.52 31.640000000000004 L 249.28 24.160000000000004 Z" stroke-linecap="round" /></g><g transform="matrix(1 0 0 1 91.03 -90.22)" id="d"  ><path style="stroke: none; stroke-width: 1; stroke-dasharray: none; stroke-linecap: butt; stroke-dashoffset: 0; stroke-linejoin: miter; stroke-miterlimit: 4; fill: rgb(255,211,165); fill-rule: nonzero; opacity: 1;"  transform=" translate(-243.62, -45.33)" d="M 250.69 40.24 C 245.04 39.96 240.53 39.79 235.49 40.330000000000005 C 234.35000000000002 42.49000000000001 234.06 45.81 236.79000000000002 50.68000000000001 C 236.79000000000002 50.68000000000001 249.31000000000003 45.64000000000001 252.57000000000002 40.36000000000001 C 251.95000000000002 40.31000000000001 251.32000000000002 40.27 250.69000000000003 40.24000000000001 Z" stroke-linecap="round" /></g><g transform="matrix(0.02 -1 1 0.02 94.89 -80.78)" id="d"  ><rect style="stroke: none; stroke-width: 1; stroke-dasharray: none; stroke-linecap: butt; stroke-dashoffset: 0; stroke-linejoin: miter; stroke-miterlimit: 4; fill: rgb(99,106,232); fill-rule: nonzero; opacity: 1;"  x="-0.39" y="-4.545" rx="0" ry="0" width="0.78" height="9.09" /></g><g transform="matrix(0.02 -1 1 0.02 94.89 -80.78)" id="d"  ><rect style="stroke: none; stroke-width: 1; stroke-dasharray: none; stroke-linecap: butt; stroke-dashoffset: 0; stroke-linejoin: miter; stroke-miterlimit: 4; fill: rgb(255,255,255); fill-rule: nonzero; opacity: 0.4;"  x="-0.39" y="-4.545" rx="0" ry="0" width="0.78" height="9.09" /></g><g transform="matrix(1 0 0 1 90.65 -104.85)" id="d"  ><path style="stroke: none; stroke-width: 1; stroke-dasharray: none; stroke-linecap: butt; stroke-dashoffset: 0; stroke-linejoin: miter; stroke-miterlimit: 4; fill: rgb(232,97,140); fill-rule: nonzero; opacity: 1;"  transform=" translate(-243.23, -30.69)" d="M 245.71 27.22 L 240.52 31.64 C 240.73000000000002 32.480000000000004 240.9 33.34 240.96 34.17 C 243.98000000000002 33.79 246.79000000000002 30.060000000000002 245.71 27.21 Z" stroke-linecap="round" /></g><g transform="matrix(1 0 0 1 76.33 -116.39)" id="d"  ><path style="stroke: none; stroke-width: 1; stroke-dasharray: none; stroke-linecap: butt; stroke-dashoffset: 0; stroke-linejoin: miter; stroke-miterlimit: 4; fill: rgb(38,50,56); fill-rule: nonzero; opacity: 1;"  transform=" translate(-228.91, -19.16)" d="M 232.12 4.51 C 230.06 3.2299999999999995 220.71 4.26 228.73000000000002 26.089999999999996 C 229.84000000000003 29.119999999999997 226.98000000000002 28.799999999999997 227.01000000000002 30.689999999999998 C 227.04000000000002 32.589999999999996 229.26000000000002 34.199999999999996 232.29000000000002 34.169999999999995 C 224.33 31.409999999999997 232.48000000000002 30.269999999999996 231.32000000000002 26.229999999999993 C 230.46 24.039999999999992 232.12000000000003 4.5099999999999945 232.12000000000003 4.5099999999999945 Z" stroke-linecap="round" /></g><g transform="matrix(1 0 0 1 86.11 -117.62)" id="d"  ><path style="stroke: none; stroke-width: 1; stroke-dasharray: none; stroke-linecap: butt; stroke-dashoffset: 0; stroke-linejoin: miter; stroke-miterlimit: 4; fill: rgb(255,211,165); fill-rule: nonzero; opacity: 1;"  transform=" translate(-238.7, -17.92)" d="M 248.97 12.45 C 249.99 20.06 250.58 23.259999999999998 247.54 27.869999999999997 C 242.95999999999998 34.8 233.39 34.379999999999995 230.12 27.22 C 219.98000000000002 5.559999999999999 243.32 -6.539999999999999 248.97 12.44 Z" stroke-linecap="round" /></g><g transform="matrix(1 0 0 1 90.04 -124.98)" id="d"  ><path style="stroke: none; stroke-width: 1; stroke-dasharray: none; stroke-linecap: butt; stroke-dashoffset: 0; stroke-linejoin: miter; stroke-miterlimit: 4; fill: rgb(38,50,56); fill-rule: nonzero; opacity: 1;"  transform=" translate(-242.63, -10.57)" d="M 230.32 5.2 C 233.57 10.76 244.98 18.84 253.82999999999998 21.14 C 259.33 7.32 243.26 -8.370000000000001 230.32 5.200000000000001 Z" stroke-linecap="round" /></g><g transform="matrix(1 0 0 1 83.15 35.26)" id="d"  ><path style="stroke: none; stroke-width: 1; stroke-dasharray: none; stroke-linecap: butt; stroke-dashoffset: 0; stroke-linejoin: miter; stroke-miterlimit: 4; fill: rgb(38,50,56); fill-rule: nonzero; opacity: 1;"  transform=" translate(-235.73, -170.81)" d="M 227.04 88.93 C 227.04 88.93 220.94 148.55 221.44 172.15 C 221.97 196.70000000000002 230.96 252.68 230.96 252.68 L 241.42000000000002 252.68 C 241.42000000000002 252.68 239.76000000000002 198.13 240.69000000000003 174.02 C 241.70000000000002 147.74 250.05 88.93 250.05 88.93 L 227.03 88.93 Z" stroke-linecap="round" /></g><g transform="matrix(1 0 0 1 83.45 115.31)" id="d"  ><polygon style="stroke: none; stroke-width: 1; stroke-dasharray: none; stroke-linecap: butt; stroke-dashoffset: 0; stroke-linejoin: miter; stroke-miterlimit: 4; fill: rgb(99,106,232); fill-rule: nonzero; opacity: 1;"  points="6.31,2.2 -5.97,2.2 -6.88,-1.72 6.88,-2.2 6.31,2.2 " /></g><g transform="matrix(1 0 0 1 83.45 115.31)" id="d"  ><polygon style="stroke: none; stroke-width: 1; stroke-dasharray: none; stroke-linecap: butt; stroke-dashoffset: 0; stroke-linejoin: miter; stroke-miterlimit: 4; fill: rgb(0,0,0); fill-rule: nonzero; opacity: 0.3;"  points="6.31,2.2 -5.97,2.2 -6.88,-1.72 6.88,-2.2 6.31,2.2 " /></g><g transform="matrix(1 0 0 1 89.15 -6.35)" id="d"  ><path style="stroke: none; stroke-width: 1; stroke-dasharray: none; stroke-linecap: butt; stroke-dashoffset: 0; stroke-linejoin: miter; stroke-miterlimit: 4; fill: rgb(99,106,232); fill-rule: nonzero; opacity: 1;"  transform=" translate(-241.73, -129.19)" d="M 240.6 103.76 C 232.88 119.29 239.04999999999998 147.62 241.78 158.16 C 241.21 152.97 253.71 84.05 240.6 103.75999999999999 Z" stroke-linecap="round" /></g><g transform="matrix(1 0 0 1 89.15 -6.35)" id="d"  ><path style="stroke: none; stroke-width: 1; stroke-dasharray: none; stroke-linecap: butt; stroke-dashoffset: 0; stroke-linejoin: miter; stroke-miterlimit: 4; fill: rgb(0,0,0); fill-rule: nonzero; opacity: 0.8;"  transform=" translate(-241.73, -129.19)" d="M 240.6 103.76 C 232.88 119.29 239.04999999999998 147.62 241.78 158.16 C 241.21 152.97 253.71 84.05 240.6 103.75999999999999 Z" stroke-linecap="round" /></g><g transform="matrix(1 0 0 1 112.67 24.45)" id="d"  ><path style="stroke: none; stroke-width: 1; stroke-dasharray: none; stroke-linecap: butt; stroke-dashoffset: 0; stroke-linejoin: miter; stroke-miterlimit: 4; fill: rgb(38,50,56); fill-rule: nonzero; opacity: 1;"  transform=" translate(-265.25, -160)" d="M 235.34 88.93 C 240.73 140.03 244.22 189.04000000000002 285.92 231.06 L 295.17 225.98 C 249.83 147.81 270.72 158.54 258.48 88.94 L 235.35000000000002 88.94 Z" stroke-linecap="round" /></g><g transform="matrix(1 0 0 1 136.57 91.15)" id="d"  ><polygon style="stroke: none; stroke-width: 1; stroke-dasharray: none; stroke-linecap: butt; stroke-dashoffset: 0; stroke-linejoin: miter; stroke-miterlimit: 4; fill: rgb(99,106,232); fill-rule: nonzero; opacity: 1;"  points="7.34,-0.82 -4.13,5.48 -7.34,2.55 5.82,-5.48 7.34,-0.82 " /></g><g transform="matrix(1 0 0 1 136.57 91.15)" id="d"  ><polygon style="stroke: none; stroke-width: 1; stroke-dasharray: none; stroke-linecap: butt; stroke-dashoffset: 0; stroke-linejoin: miter; stroke-miterlimit: 4; fill: rgb(0,0,0); fill-rule: nonzero; opacity: 0.3;"  points="7.34,-0.82 -4.13,5.48 -7.34,2.55 5.82,-5.48 7.34,-0.82 " /></g><g transform="matrix(1 0 0 1 96.65 -114.9)" id="d"  ><path style="stroke: none; stroke-width: 1; stroke-dasharray: none; stroke-linecap: butt; stroke-dashoffset: 0; stroke-linejoin: miter; stroke-miterlimit: 4; fill: rgb(255,211,165); fill-rule: nonzero; opacity: 1;"  transform=" translate(-249.23, -20.65)" d="M 251.93 20.19 C 251.68 21.76 250.73000000000002 23.07 249.66 23.830000000000002 C 245.47 26.080000000000002 245.66 17.68 249 17.14 C 250.85 16.75 252.21 18.39 251.92 20.19 Z" stroke-linecap="round" /></g><g transform="matrix(1 0 0 1 84.46 -122.94)" id="d"  ><path style="stroke: none; stroke-width: 1; stroke-dasharray: none; stroke-linecap: butt; stroke-dashoffset: 0; stroke-linejoin: miter; stroke-miterlimit: 4; fill: rgb(38,50,56); fill-rule: nonzero; opacity: 1;"  transform=" translate(-237.05, -12.6)" d="M 239.09 13.54 C 237.93 12.53 235.24 12.28 235.17000000000002 12.399999999999999 C 232.79000000000002 10.809999999999999 240.95000000000002 12.069999999999999 239.09 13.54 Z" stroke-linecap="round" /></g><g transform="matrix(1 0 0 1 75.54 -123.02)" id="d"  ><path style="stroke: none; stroke-width: 1; stroke-dasharray: none; stroke-linecap: butt; stroke-dashoffset: 0; stroke-linejoin: miter; stroke-miterlimit: 4; fill: rgb(38,50,56); fill-rule: nonzero; opacity: 1;"  transform=" translate(-228.13, -12.53)" d="M 226.84 13.71 C 225.09 12.5 231.24 10.16 229.37 12.07 C 229.04 11.89 227.8 12.700000000000001 226.84 13.71 Z" stroke-linecap="round" /></g><g transform="matrix(1 0 0 1 112.82 -58.67)" id="d"  ><path style="stroke: none; stroke-width: 1; stroke-dasharray: none; stroke-linecap: butt; stroke-dashoffset: 0; stroke-linejoin: miter; stroke-miterlimit: 4; fill: rgb(255,211,165); fill-rule: nonzero; opacity: 1;"  transform=" translate(-265.4, -76.88)" d="M 267.44 50.26 C 276.44 76.35 281.21 83.87 258.71999999999997 103.49 L 255.86999999999998 100.8 C 272.76 81.19999999999999 268.04999999999995 75.72 260.10999999999996 53.26 L 267.43999999999994 50.269999999999996 Z" stroke-linecap="round" /></g><g transform="matrix(1 0 0 1 110.6 -83.37)" id="d"  ><path style="stroke: none; stroke-width: 1; stroke-dasharray: none; stroke-linecap: butt; stroke-dashoffset: 0; stroke-linejoin: miter; stroke-miterlimit: 4; fill: rgb(99,106,232); fill-rule: nonzero; opacity: 1;"  transform=" translate(-263.18, -52.18)" d="M 264.05 41.99 C 267.2 42.95 270.98 53.790000000000006 270.98 53.790000000000006 L 258.76 62.53000000000001 C 258.76 62.53000000000001 254.31 53.480000000000004 255.63 49.41000000000001 C 257.01 45.17000000000001 260.45 40.90000000000001 264.05 42.000000000000014 Z" stroke-linecap="round" /></g><g transform="matrix(1 0 0 1 110.6 -83.37)" id="d"  ><path style="stroke: none; stroke-width: 1; stroke-dasharray: none; stroke-linecap: butt; stroke-dashoffset: 0; stroke-linejoin: miter; stroke-miterlimit: 4; fill: rgb(0,0,0); fill-rule: nonzero; opacity: 0.3;"  transform=" translate(-263.18, -52.18)" d="M 264.05 41.99 C 267.2 42.95 270.98 53.790000000000006 270.98 53.790000000000006 L 258.76 62.53000000000001 C 258.76 62.53000000000001 254.31 53.480000000000004 255.63 49.41000000000001 C 257.01 45.17000000000001 260.45 40.90000000000001 264.05 42.000000000000014 Z" stroke-linecap="round" /></g><g transform="matrix(1 0 0 1 101.56 -32.44)" id="d"  ><path style="stroke: none; stroke-width: 1; stroke-dasharray: none; stroke-linecap: butt; stroke-dashoffset: 0; stroke-linejoin: miter; stroke-miterlimit: 4; fill: rgb(255,211,165); fill-rule: nonzero; opacity: 1;"  transform=" translate(-254.14, -103.1)" d="M 256.91 99.9 L 248.62000000000003 100.99000000000001 L 254.43000000000004 106.30000000000001 C 254.43000000000004 106.30000000000001 259.13000000000005 104.70000000000002 259.66 101.53000000000002 L 256.91 99.91000000000001 Z" stroke-linecap="round" /></g><g transform="matrix(1 0 0 1 96.66 -30.14)" id="d"  ><polygon style="stroke: none; stroke-width: 1; stroke-dasharray: none; stroke-linecap: butt; stroke-dashoffset: 0; stroke-linejoin: miter; stroke-miterlimit: 4; fill: rgb(255,211,165); fill-rule: nonzero; opacity: 1;"  points="-5.19,0.23 -0.08,4.41 5.19,0.89 -0.63,-4.41 -5.19,0.23 " /></g><g transform="matrix(1 0 0 1 90.33 -46.98)" id="d"  ><path style="stroke: none; stroke-width: 1; stroke-dasharray: none; stroke-linecap: butt; stroke-dashoffset: 0; stroke-linejoin: miter; stroke-miterlimit: 4; fill: rgb(99,106,232); fill-rule: nonzero; opacity: 1;"  transform=" translate(-242.91, -88.56)" d="M 258.94 87.08 C 258.75 87.52 260.59 90.5 259.23 90.33 L 226.88000000000002 90.33 C 226.11 90.76 225.70000000000002 86.42 226.60000000000002 86.84 C 227.11 87.07000000000001 258.63 86.4 258.94000000000005 87.08 Z" stroke-linecap="round" /></g><g transform="matrix(1 0 0 1 90.33 -46.98)" id="d"  ><path style="stroke: none; stroke-width: 1; stroke-dasharray: none; stroke-linecap: butt; stroke-dashoffset: 0; stroke-linejoin: miter; stroke-miterlimit: 4; fill: rgb(255,255,255); fill-rule: nonzero; opacity: 0.6;"  transform=" translate(-242.91, -88.56)" d="M 258.94 87.08 C 258.75 87.52 260.59 90.5 259.23 90.33 L 226.88000000000002 90.33 C 226.11 90.76 225.70000000000002 86.42 226.60000000000002 86.84 C 227.11 87.07000000000001 258.63 86.4 258.94000000000005 87.08 Z" stroke-linecap="round" /></g><g transform="matrix(1 0 0 1 102.29 -46.94)" id="d"  ><path style="stroke: none; stroke-width: 1; stroke-dasharray: none; stroke-linecap: butt; stroke-dashoffset: 0; stroke-linejoin: miter; stroke-miterlimit: 4; fill: rgb(38,50,56); fill-rule: nonzero; opacity: 1;"  transform=" translate(-254.88, -88.61)" d="M 254.67 90.64 C 254.86999999999998 90.59 255.82 90.79 255.80999999999997 90.45 L 255.40999999999997 86.79 C 255.30999999999997 86.49000000000001 254.00999999999996 86.47000000000001 253.93999999999997 86.79 C 254.09999999999997 86.99000000000001 254.05999999999997 90.87 254.66999999999996 90.64 Z" stroke-linecap="round" /></g><g transform="matrix(1 0 0 1 76.9 -46.94)" id="d"  ><path style="stroke: none; stroke-width: 1; stroke-dasharray: none; stroke-linecap: butt; stroke-dashoffset: 0; stroke-linejoin: miter; stroke-miterlimit: 4; fill: rgb(38,50,56); fill-rule: nonzero; opacity: 1;"  transform=" translate(-229.49, -88.61)" d="M 229.28 90.64 C 229.48 90.59 230.43 90.79 230.42 90.45 L 230.01999999999998 86.79 C 229.92 86.49000000000001 228.61999999999998 86.47000000000001 228.54999999999998 86.79 C 228.70999999999998 86.99000000000001 228.67 90.87 229.27999999999997 90.64 Z" stroke-linecap="round" /></g><g transform="matrix(1 0 0 1 89.6 -46.94)" id="d"  ><path style="stroke: none; stroke-width: 1; stroke-dasharray: none; stroke-linecap: butt; stroke-dashoffset: 0; stroke-linejoin: miter; stroke-miterlimit: 4; fill: rgb(38,50,56); fill-rule: nonzero; opacity: 1;"  transform=" translate(-242.19, -88.61)" d="M 241.98 90.64 C 242.17999999999998 90.59 243.13 90.79 243.11999999999998 90.45 L 242.71999999999997 86.79 C 242.61999999999998 86.49000000000001 241.31999999999996 86.47000000000001 241.24999999999997 86.79 C 241.40999999999997 86.99000000000001 241.36999999999998 90.87 241.97999999999996 90.64 Z" stroke-linecap="round" /></g><g transform="matrix(1 0 0 1 5.17 -67.52)" id="d"  ><path style="stroke: none; stroke-width: 1; stroke-dasharray: none; stroke-linecap: butt; stroke-dashoffset: 0; stroke-linejoin: miter; stroke-miterlimit: 4; fill: rgb(248,206,219); fill-rule: nonzero; opacity: 1;"  transform=" translate(-157.76, -68.03)" d="M 155.02 73.9 L 154.04000000000002 73.69000000000001 C 155.00000000000003 69.20000000000002 157.34000000000003 65.21000000000001 160.81000000000003 62.15000000000001 L 161.47000000000003 62.90000000000001 C 158.16000000000003 65.82000000000001 155.93000000000004 69.62000000000002 155.02000000000004 73.9 Z" stroke-linecap="round" /></g><g transform="matrix(0.21 -0.98 0.98 0.21 -9.12 -54.36)" id="d"  ><rect style="stroke: none; stroke-width: 1; stroke-dasharray: none; stroke-linecap: butt; stroke-dashoffset: 0; stroke-linejoin: miter; stroke-miterlimit: 4; fill: rgb(248,206,219); fill-rule: nonzero; opacity: 1;"  x="-0.5" y="-2.86" rx="0" ry="0" width="1" height="5.72" /></g><g transform="matrix(1 0 0 1 10.8 -14.44)" id="d"  ><path style="stroke: none; stroke-width: 1; stroke-dasharray: none; stroke-linecap: butt; stroke-dashoffset: 0; stroke-linejoin: miter; stroke-miterlimit: 4; fill: rgb(99,106,232); fill-rule: nonzero; opacity: 1;"  transform=" translate(-163.39, -121.11)" d="M 184.73 93.05 C 196.88 85.8 194.53 65.3 180.63 61.23 C 164.95 55.48 150.76 74.44 159.89 87.75999999999999 L 135.44 82.55 C 132.7 81.96 130 83.72 129.41 86.46 L 113.69999999999999 160.19 C 113.10999999999999 162.93 114.86999999999999 165.63 117.60999999999999 166.22 L 142.05999999999997 171.43 C 133.90999999999997 159.86 144.40999999999997 142.10000000000002 158.76999999999998 144.04000000000002 C 175.42999999999998 145.18 180.65999999999997 168.27 166.89 176.72000000000003 L 191.33999999999997 181.93000000000004 C 194.07999999999998 182.51000000000005 196.77999999999997 180.76000000000005 197.36999999999998 178.02000000000004 L 213.07999999999998 104.29000000000003 C 213.66 101.55000000000004 211.91 98.85000000000004 209.17 98.26000000000003 L 184.73 93.05000000000004 Z" stroke-linecap="round" /></g><g transform="matrix(1 0 0 1 10.8 -14.44)" id="d"  ><path style="stroke: none; stroke-width: 1; stroke-dasharray: none; stroke-linecap: butt; stroke-dashoffset: 0; stroke-linejoin: miter; stroke-miterlimit: 4; fill: rgb(0,0,0); fill-rule: nonzero; opacity: 0.4;"  transform=" translate(-163.39, -121.11)" d="M 184.73 93.05 C 196.88 85.8 194.53 65.3 180.63 61.23 C 164.95 55.48 150.76 74.44 159.89 87.75999999999999 L 135.44 82.55 C 132.7 81.96 130 83.72 129.41 86.46 L 113.69999999999999 160.19 C 113.10999999999999 162.93 114.86999999999999 165.63 117.60999999999999 166.22 L 142.05999999999997 171.43 C 133.90999999999997 159.86 144.40999999999997 142.10000000000002 158.76999999999998 144.04000000000002 C 175.42999999999998 145.18 180.65999999999997 168.27 166.89 176.72000000000003 L 191.33999999999997 181.93000000000004 C 194.07999999999998 182.51000000000005 196.77999999999997 180.76000000000005 197.36999999999998 178.02000000000004 L 213.07999999999998 104.29000000000003 C 213.66 101.55000000000004 211.91 98.85000000000004 209.17 98.26000000000003 L 184.73 93.05000000000004 Z" stroke-linecap="round" /></g><g transform="matrix(1 0 0 1 3.79 76.5)" id="d"  ><path style="stroke: none; stroke-width: 1; stroke-dasharray: none; stroke-linecap: butt; stroke-dashoffset: 0; stroke-linejoin: miter; stroke-miterlimit: 4; fill: rgb(99,106,232); fill-rule: nonzero; opacity: 1;"  transform=" translate(-156.38, -212.05)" d="M 169.07 184.5 C 179.45 174.88 172.88 155.32 158.43 154.23 C 141.9 151.86999999999998 131.97 173.37 143.68 184.5 L 118.69000000000001 184.5 C 115.89000000000001 184.5 113.61000000000001 186.77 113.61000000000001 189.58 L 113.61000000000001 264.96000000000004 C 113.61000000000001 267.76000000000005 115.88000000000001 270.04 118.69000000000001 270.04 L 194.07 270.04 C 196.87 270.04 199.15 267.77000000000004 199.15 264.96000000000004 L 199.15 189.58000000000004 C 199.15 186.78000000000003 196.88 184.50000000000003 194.07 184.50000000000003 L 169.07999999999998 184.50000000000003 Z" stroke-linecap="round" /></g><g transform="matrix(1 0 0 1 3.79 76.5)" id="d"  ><path style="stroke: none; stroke-width: 1; stroke-dasharray: none; stroke-linecap: butt; stroke-dashoffset: 0; stroke-linejoin: miter; stroke-miterlimit: 4; fill: rgb(255,255,255); fill-rule: nonzero; opacity: 0.4;"  transform=" translate(-156.38, -212.05)" d="M 169.07 184.5 C 179.45 174.88 172.88 155.32 158.43 154.23 C 141.9 151.86999999999998 131.97 173.37 143.68 184.5 L 118.69000000000001 184.5 C 115.89000000000001 184.5 113.61000000000001 186.77 113.61000000000001 189.58 L 113.61000000000001 264.96000000000004 C 113.61000000000001 267.76000000000005 115.88000000000001 270.04 118.69000000000001 270.04 L 194.07 270.04 C 196.87 270.04 199.15 267.77000000000004 199.15 264.96000000000004 L 199.15 189.58000000000004 C 199.15 186.78000000000003 196.88 184.50000000000003 194.07 184.50000000000003 L 169.07999999999998 184.50000000000003 Z" stroke-linecap="round" /></g><g transform="matrix(1 0 0 1 -89.32 119.48)" id="e"  ><polygon style="stroke: none; stroke-width: 1; stroke-dasharray: none; stroke-linecap: butt; stroke-dashoffset: 0; stroke-linejoin: miter; stroke-miterlimit: 4; fill: rgb(255,211,165); fill-rule: nonzero; opacity: 1;"  points="-4.61,8.44 2.67,8.44 4.61,-8.43 -2.67,-8.43 -4.61,8.44 " /></g><g transform="matrix(1 0 0 1 -138.72 119.48)" id="e"  ><polygon style="stroke: none; stroke-width: 1; stroke-dasharray: none; stroke-linecap: butt; stroke-dashoffset: 0; stroke-linejoin: miter; stroke-miterlimit: 4; fill: rgb(255,211,165); fill-rule: nonzero; opacity: 1;"  points="-6.48,8.44 0.8,8.44 6.48,-8.43 -0.81,-8.43 -6.48,8.44 " /></g><g transform="matrix(1 0 0 1 -136.77 131.19)" id="e"  ><path style="stroke: none; stroke-width: 1; stroke-dasharray: none; stroke-linecap: butt; stroke-dashoffset: 0; stroke-linejoin: miter; stroke-miterlimit: 4; fill: rgb(38,50,56); fill-rule: nonzero; opacity: 1;"  transform=" translate(-15.82, -266.74)" d="M 15.64 262.62 C 5.07 263.28000000000003 6.83 259.58 4.700000000000001 269.59000000000003 C 4.9300000000000015 272.36 11.400000000000002 270.09000000000003 14.31 270.67 C 16.150000000000002 270.33000000000004 29.91 272.73 26.35 267.6 C 19.67 266.38 18.94 263.98 15.64 262.62 Z" stroke-linecap="round" /></g><g transform="matrix(1 0 0 1 -83.01 131.21)" id="e"  ><path style="stroke: none; stroke-width: 1; stroke-dasharray: none; stroke-linecap: butt; stroke-dashoffset: 0; stroke-linejoin: miter; stroke-miterlimit: 4; fill: rgb(38,50,56); fill-rule: nonzero; opacity: 1;"  transform=" translate(-69.57, -266.75)" d="M 65.89 262.62 C 56.41 263.23 57.96 259.7 55.870000000000005 269.59000000000003 C 56.120000000000005 272.44000000000005 64.53 270.03000000000003 67.54 270.67 C 70.11 269.99 85.81 273.31 82.92 267.6 C 76.49000000000001 266.65000000000003 71.57000000000001 265.26000000000005 65.89 262.61 Z" stroke-linecap="round" /></g><g transform="matrix(1 0 0 1 -86 -35.21)" id="e"  ><path style="stroke: none; stroke-width: 1; stroke-dasharray: none; stroke-linecap: butt; stroke-dashoffset: 0; stroke-linejoin: miter; stroke-miterlimit: 4; fill: rgb(255,211,165); fill-rule: nonzero; opacity: 1;"  transform=" translate(-66.58, -100.34)" d="M 58.19 73.89 C 64.91 102.4 51.349999999999994 114.15 85.9 121.33 L 85.41000000000001 126.78 C 45.33000000000001 125.37 52.81000000000001 106.4 47.26000000000001 75.46000000000001 L 58.19000000000001 73.89000000000001 Z" stroke-linecap="round" /></g><g transform="matrix(1 0 0 1 -98.23 -52.23)" id="e"  ><path style="stroke: none; stroke-width: 1; stroke-dasharray: none; stroke-linecap: butt; stroke-dashoffset: 0; stroke-linejoin: miter; stroke-miterlimit: 4; fill: rgb(38,50,56); fill-rule: nonzero; opacity: 1;"  transform=" translate(-54.36, -83.32)" d="M 44.85 71.81 C 42.39 78.33 48.28 100.18 48.28 100.18 L 64.47 92.09 C 64.47 92.09 63.71 81.2 60.01 72.82000000000001 C 56.269999999999996 64.36000000000001 47.56 64.66000000000001 44.86 71.81 Z" stroke-linecap="round" /></g><g transform="matrix(1 0 0 1 -67.75 -10.38)" id="e"  ><path style="stroke: none; stroke-width: 1; stroke-dasharray: none; stroke-linecap: butt; stroke-dashoffset: 0; stroke-linejoin: miter; stroke-miterlimit: 4; fill: rgb(255,211,165); fill-rule: nonzero; opacity: 1;"  transform=" translate(-84.84, -125.16)" d="M 82.02 120.63 L 89.97 121.16 L 86.26 129.69 C 86.26 129.69 81.16000000000001 129.69 79.71000000000001 124.58 L 82.02000000000001 120.63 Z" stroke-linecap="round" /></g><g transform="matrix(1 0 0 1 -62.32 -10.05)" id="e"  ><polygon style="stroke: none; stroke-width: 1; stroke-dasharray: none; stroke-linecap: butt; stroke-dashoffset: 0; stroke-linejoin: miter; stroke-miterlimit: 4; fill: rgb(255,211,165); fill-rule: nonzero; opacity: 1;"  points="4,-1.64 -0.41,4.34 -4,4.2 -0.3,-4.34 4,-1.64 " /></g><g transform="matrix(1 0 0 1 -88.85 115.4)" id="e"  ><polygon style="stroke: none; stroke-width: 1; stroke-dasharray: none; stroke-linecap: butt; stroke-dashoffset: 0; stroke-linejoin: miter; stroke-miterlimit: 4; fill: rgb(232,97,140); fill-rule: nonzero; opacity: 1;"  points="4.14,-4.34 3.14,4.34 -4.14,4.34 -3.14,-4.34 4.14,-4.34 " /></g><g transform="matrix(1 0 0 1 -137.34 115.4)" id="e"  ><polygon style="stroke: none; stroke-width: 1; stroke-dasharray: none; stroke-linecap: butt; stroke-dashoffset: 0; stroke-linejoin: miter; stroke-miterlimit: 4; fill: rgb(232,97,140); fill-rule: nonzero; opacity: 1;"  points="-2.18,-4.34 5.11,-4.34 2.18,4.34 -5.11,4.34 -2.18,-4.34 " /></g><g transform="matrix(1 0 0 1 -117.51 -38.31)" id="e"  ><path style="stroke: none; stroke-width: 1; stroke-dasharray: none; stroke-linecap: butt; stroke-dashoffset: 0; stroke-linejoin: miter; stroke-miterlimit: 4; fill: rgb(38,50,56); fill-rule: nonzero; opacity: 1;"  transform=" translate(-35.08, -97.24)" d="M 53.51 66.82 C 53.51 66.82 62.11 88.82 53.94 129.79999999999998 L 14.97 129.79999999999998 C 14.700000000000001 123.81999999999998 18.46 94.63999999999999 12.690000000000001 66.44999999999999 C 19.37 64.30999999999999 46.790000000000006 63.73999999999999 53.510000000000005 66.82999999999998 Z" stroke-linecap="round" /></g><g transform="matrix(1 0 0 1 -134.75 -46.19)" id="e"  ><path style="stroke: none; stroke-width: 1; stroke-dasharray: none; stroke-linecap: butt; stroke-dashoffset: 0; stroke-linejoin: miter; stroke-miterlimit: 4; fill: rgb(99,106,232); fill-rule: nonzero; opacity: 1;"  transform=" translate(-17.83, -89.35)" d="M 20.63 79.92 C 19.36 73.49000000000001 16.88 74.6 14.53 77.77 C 15.649999999999999 86.84 15.959999999999999 95.67999999999999 15.92 103.47 C 17.52 100.74 22.759999999999998 90.7 20.63 79.92 Z" stroke-linecap="round" /></g><g transform="matrix(1 0 0 1 -134.75 -46.19)" id="e"  ><path style="stroke: none; stroke-width: 1; stroke-dasharray: none; stroke-linecap: butt; stroke-dashoffset: 0; stroke-linejoin: miter; stroke-miterlimit: 4; fill: rgb(0,0,0); fill-rule: nonzero; opacity: 0.8;"  transform=" translate(-17.83, -89.35)" d="M 20.63 79.92 C 19.36 73.49000000000001 16.88 74.6 14.53 77.77 C 15.649999999999999 86.84 15.959999999999999 95.67999999999999 15.92 103.47 C 17.52 100.74 22.759999999999998 90.7 20.63 79.92 Z" stroke-linecap="round" /></g><g transform="matrix(1 0 0 1 -117.83 -77.36)" id="e"  ><path style="stroke: none; stroke-width: 1; stroke-dasharray: none; stroke-linecap: butt; stroke-dashoffset: 0; stroke-linejoin: miter; stroke-miterlimit: 4; fill: rgb(255,211,165); fill-rule: nonzero; opacity: 1;"  transform=" translate(-34.76, -58.18)" d="M 27.37 46.15 C 28.41 51.48 29.46 61.25 25.73 64.8 C 25.73 64.8 27.19 70.21 37.09 70.21 C 47.980000000000004 70.21 42.300000000000004 64.8 42.300000000000004 64.8 C 36.36000000000001 63.379999999999995 36.510000000000005 58.97 37.540000000000006 54.83 L 27.370000000000005 46.15 Z" stroke-linecap="round" /></g><g transform="matrix(1 0 0 1 -118.19 -81.82)" id="e"  ><path style="stroke: none; stroke-width: 1; stroke-dasharray: none; stroke-linecap: butt; stroke-dashoffset: 0; stroke-linejoin: miter; stroke-miterlimit: 4; fill: rgb(232,97,140); fill-rule: nonzero; opacity: 1;"  transform=" translate(-34.39, -53.72)" d="M 31.52 49.69 L 37.54 54.82 C 37.29 55.8 37.1 56.79 37.03 57.76 C 33.52 57.32 30.26 52.989999999999995 31.520000000000003 49.68 Z" stroke-linecap="round" /></g><g transform="matrix(1 0 0 1 -108.42 -98.91)" id="e"  ><path style="stroke: none; stroke-width: 1; stroke-dasharray: none; stroke-linecap: butt; stroke-dashoffset: 0; stroke-linejoin: miter; stroke-miterlimit: 4; fill: rgb(38,50,56); fill-rule: nonzero; opacity: 1;"  transform=" translate(-44.16, -36.64)" d="M 44.31 29.75 C 47.900000000000006 31.27 49.84 41.32 45.260000000000005 43.63 C 40.67 45.940000000000005 37.52 26.880000000000003 44.31 29.75 Z" stroke-linecap="round" /></g><g transform="matrix(1 0 0 1 -115.45 -93.67)" id="e"  ><path style="stroke: none; stroke-width: 1; stroke-dasharray: none; stroke-linecap: butt; stroke-dashoffset: 0; stroke-linejoin: miter; stroke-miterlimit: 4; fill: rgb(255,211,165); fill-rule: nonzero; opacity: 1;"  transform=" translate(-37.13, -41.87)" d="M 26.74 38.12 C 27.18 45.339999999999996 27.08 49.58 30.72 53.29 C 46.879999999999995 65.88 53.959999999999994 34.28 40.33 28.279999999999998 C 33.37 25.449999999999996 26.29 30.9 26.74 38.12 Z" stroke-linecap="round" /></g><g transform="matrix(1 0 0 1 -125.98 -97.78)" id="e"  ><path style="stroke: none; stroke-width: 1; stroke-dasharray: none; stroke-linecap: butt; stroke-dashoffset: 0; stroke-linejoin: miter; stroke-miterlimit: 4; fill: rgb(38,50,56); fill-rule: nonzero; opacity: 1;"  transform=" translate(-26.6, -37.76)" d="M 27.24 45.2 C 31.049999999999997 46.77 38.239999999999995 35.02 27.18 30.96 C 14.94 26.47 21.08 42.67 27.24 45.2 Z" stroke-linecap="round" /></g><g transform="matrix(1 0 0 1 -112.89 -108.63)" id="e"  ><path style="stroke: none; stroke-width: 1; stroke-dasharray: none; stroke-linecap: butt; stroke-dashoffset: 0; stroke-linejoin: miter; stroke-miterlimit: 4; fill: rgb(38,50,56); fill-rule: nonzero; opacity: 1;"  transform=" translate(-39.7, -26.91)" d="M 28.9 33.8 C 35.36 35.76 44.46 33.779999999999994 45.629999999999995 30.529999999999998 C 46.669999999999995 27.63 47.589999999999996 28.909999999999997 49.35999999999999 30.799999999999997 C 54.21999999999999 36.01 63.919999999999995 33.919999999999995 55.71999999999999 26.04 C 57.56999999999999 28.299999999999997 53.76999999999999 34.37 50.97999999999999 25.72 C 48.83999999999999 19.08 40.40999999999999 17.18 37.67999999999999 21.759999999999998 C 34.42999999999999 27.2 12.879999999999992 14.979999999999997 23.32999999999999 31.589999999999996 C 25.18999999999999 36.36 28.89999999999999 33.8 28.89999999999999 33.8 Z" stroke-linecap="round" /></g><g transform="matrix(1 0 0 1 -131.16 -106.44)" id="e"  ><path style="stroke: none; stroke-width: 1; stroke-dasharray: none; stroke-linecap: butt; stroke-dashoffset: 0; stroke-linejoin: miter; stroke-miterlimit: 4; fill: rgb(38,50,56); fill-rule: nonzero; opacity: 1;"  transform=" translate(-21.42, -29.1)" d="M 23.88 30.4 C 23.88 30.4 21.64 29.79 18.96 27.52 C 18.96 27.52 19.17 31.81 23.880000000000003 30.4 Z" stroke-linecap="round" /></g><g transform="matrix(1 0 0 1 -125.82 -90.38)" id="e"  ><path style="stroke: none; stroke-width: 1; stroke-dasharray: none; stroke-linecap: butt; stroke-dashoffset: 0; stroke-linejoin: miter; stroke-miterlimit: 4; fill: rgb(255,211,165); fill-rule: nonzero; opacity: 1;"  transform=" translate(-26.77, -45.17)" d="M 23.48 46.08 C 24.5 47.739999999999995 26.2 48.769999999999996 27.76 49.12 C 33.56 49.68 29.360000000000003 40.28 25.330000000000002 41.26 C 23.060000000000002 41.699999999999996 22.3 44.19 23.470000000000002 46.089999999999996 Z" stroke-linecap="round" /></g><g transform="matrix(1 0 0 1 -98.13 56.16)" id="e"  ><path style="stroke: none; stroke-width: 1; stroke-dasharray: none; stroke-linecap: butt; stroke-dashoffset: 0; stroke-linejoin: miter; stroke-miterlimit: 4; fill: rgb(99,106,232); fill-rule: nonzero; opacity: 1;"  transform=" translate(-54.46, -191.71)" d="M 53.94 129.8 C 89.00999999999999 175.34 84.1 204.15 69.62 253.61 L 57.28 253.61 C 57.28 253.61 62.33 215.85000000000002 61.79 193.16000000000003 C 61.19 168.42000000000002 28.33 148.89000000000001 28.33 129.8 L 53.95 129.8 Z" stroke-linecap="round" /></g><g transform="matrix(1 0 0 1 -98.13 56.16)" id="e"  ><path style="stroke: none; stroke-width: 1; stroke-dasharray: none; stroke-linecap: butt; stroke-dashoffset: 0; stroke-linejoin: miter; stroke-miterlimit: 4; fill: rgb(255,255,255); fill-rule: nonzero; opacity: 0.6;"  transform=" translate(-54.46, -191.71)" d="M 53.94 129.8 C 89.00999999999999 175.34 84.1 204.15 69.62 253.61 L 57.28 253.61 C 57.28 253.61 62.33 215.85000000000002 61.79 193.16000000000003 C 61.19 168.42000000000002 28.33 148.89000000000001 28.33 129.8 L 53.95 129.8 Z" stroke-linecap="round" /></g><g transform="matrix(1 0 0 1 -123.73 56.16)" id="e"  ><path style="stroke: none; stroke-width: 1; stroke-dasharray: none; stroke-linecap: butt; stroke-dashoffset: 0; stroke-linejoin: miter; stroke-miterlimit: 4; fill: rgb(99,106,232); fill-rule: nonzero; opacity: 1;"  transform=" translate(-28.85, -191.71)" d="M 40.11 129.8 C 61.56 182.26000000000002 45.82 213 20.84 253.61 L 7.5 253.61 C 7.5 253.61 25.36 215.93 28.19 193.31 C 31.270000000000003 168.76 14.96 148.05 14.96 129.8 C 29.880000000000003 129.8 40.11 129.8 40.11 129.8 Z" stroke-linecap="round" /></g><g transform="matrix(1 0 0 1 -123.73 56.16)" id="e"  ><path style="stroke: none; stroke-width: 1; stroke-dasharray: none; stroke-linecap: butt; stroke-dashoffset: 0; stroke-linejoin: miter; stroke-miterlimit: 4; fill: rgb(255,255,255); fill-rule: nonzero; opacity: 0.6;"  transform=" translate(-28.85, -191.71)" d="M 40.11 129.8 C 61.56 182.26000000000002 45.82 213 20.84 253.61 L 7.5 253.61 C 7.5 253.61 25.36 215.93 28.19 193.31 C 31.270000000000003 168.76 14.96 148.05 14.96 129.8 C 29.880000000000003 129.8 40.11 129.8 40.11 129.8 Z" stroke-linecap="round" /></g><g transform="matrix(1 0 0 1 -137.08 115.86)" id="e"  ><polygon style="stroke: none; stroke-width: 1; stroke-dasharray: none; stroke-linecap: butt; stroke-dashoffset: 0; stroke-linejoin: miter; stroke-miterlimit: 4; fill: rgb(99,106,232); fill-rule: nonzero; opacity: 1;"  points="7.7,2.5 -9.75,2.5 -9.75,-2.2 9.75,-2.5 7.7,2.5 " /></g><g transform="matrix(1 0 0 1 -137.08 115.86)" id="e"  ><polygon style="stroke: none; stroke-width: 1; stroke-dasharray: none; stroke-linecap: butt; stroke-dashoffset: 0; stroke-linejoin: miter; stroke-miterlimit: 4; fill: rgb(255,255,255); fill-rule: nonzero; opacity: 0.4;"  points="7.7,2.5 -9.75,2.5 -9.75,-2.2 9.75,-2.5 7.7,2.5 " /></g><g transform="matrix(1 0 0 1 -87.91 115.86)" id="e"  ><polygon style="stroke: none; stroke-width: 1; stroke-dasharray: none; stroke-linecap: butt; stroke-dashoffset: 0; stroke-linejoin: miter; stroke-miterlimit: 4; fill: rgb(99,106,232); fill-rule: nonzero; opacity: 1;"  points="7.69,2.5 -9.75,2.5 -9.75,-2.25 9.75,-2.5 7.69,2.5 " /></g><g transform="matrix(1 0 0 1 -87.91 115.86)" id="e"  ><polygon style="stroke: none; stroke-width: 1; stroke-dasharray: none; stroke-linecap: butt; stroke-dashoffset: 0; stroke-linejoin: miter; stroke-miterlimit: 4; fill: rgb(255,255,255); fill-rule: nonzero; opacity: 0.4;"  points="7.69,2.5 -9.75,2.5 -9.75,-2.25 9.75,-2.5 7.69,2.5 " /></g><g transform="matrix(1 0 0 1 -115.64 -98.52)" id="e"  ><path style="stroke: none; stroke-width: 1; stroke-dasharray: none; stroke-linecap: butt; stroke-dashoffset: 0; stroke-linejoin: miter; stroke-miterlimit: 4; fill: rgb(38,50,56); fill-rule: nonzero; opacity: 1;"  transform=" translate(-36.95, -37.02)" d="M 35.69 38 C 35.419999999999995 38 35.239999999999995 37.66 35.419999999999995 37.45 C 36.709999999999994 35.57 39.56999999999999 35.84 38.17999999999999 36.71 C 38.07999999999999 36.5 36.54999999999999 37.13 35.68999999999999 38 Z" stroke-linecap="round" /></g><g transform="matrix(1 0 0 1 -88.12 -10.29)" id="e"  ><path style="stroke: none; stroke-width: 1; stroke-dasharray: none; stroke-linecap: butt; stroke-dashoffset: 0; stroke-linejoin: miter; stroke-miterlimit: 4; fill: rgb(99,106,232); fill-rule: nonzero; opacity: 1;"  transform=" translate(-64.47, -125.26)" d="M 60.45 182.12 L 120.38 136.39000000000001 C 122.61 134.69000000000003 123.03999999999999 131.50000000000003 121.33999999999999 129.27 L 106.17999999999999 109.4 C 104.83 123.49000000000001 85.28999999999999 130.13 75.66 119.31 C 63.76 107.6 74.82 86.66 90.77 89.22 L 75.61 69.35 C 73.91 67.11999999999999 70.72 66.69 68.49 68.39 L 8.56 114.12 C 6.33 115.82000000000001 5.9 119.01 7.6000000000000005 121.24000000000001 L 53.33 181.16000000000003 C 55.03 183.39000000000001 58.22 183.82000000000002 60.449999999999996 182.12000000000003 Z" stroke-linecap="round" /></g><g transform="matrix(1 0 0 1 -88.12 -10.29)" id="e"  ><path style="stroke: none; stroke-width: 1; stroke-dasharray: none; stroke-linecap: butt; stroke-dashoffset: 0; stroke-linejoin: miter; stroke-miterlimit: 4; fill: rgb(0,0,0); fill-rule: nonzero; opacity: 0.2;"  transform=" translate(-64.47, -125.26)" d="M 60.45 182.12 L 120.38 136.39000000000001 C 122.61 134.69000000000003 123.03999999999999 131.50000000000003 121.33999999999999 129.27 L 106.17999999999999 109.4 C 104.83 123.49000000000001 85.28999999999999 130.13 75.66 119.31 C 63.76 107.6 74.82 86.66 90.77 89.22 L 75.61 69.35 C 73.91 67.11999999999999 70.72 66.69 68.49 68.39 L 8.56 114.12 C 6.33 115.82000000000001 5.9 119.01 7.6000000000000005 121.24000000000001 L 53.33 181.16000000000003 C 55.03 183.39000000000001 58.22 183.82000000000002 60.449999999999996 182.12000000000003 Z" stroke-linecap="round" /></g><g transform="matrix(1 0 0 1 -106.49 -98.9)" id="e"  ><path style="stroke: none; stroke-width: 1; stroke-dasharray: none; stroke-linecap: butt; stroke-dashoffset: 0; stroke-linejoin: miter; stroke-miterlimit: 4; fill: rgb(38,50,56); fill-rule: nonzero; opacity: 1;"  transform=" translate(-46.1, -36.65)" d="M 47.24 37.86 C 47.11 37.86 46.99 37.79 46.93 37.67 C 46.26 36.300000000000004 45.03 36.120000000000005 44.98 36.11 C 43.349999999999994 34.269999999999996 48.79 36.63 47.239999999999995 37.86 Z" stroke-linecap="round" /></g><g transform="matrix(1 0 0 1 -138.43 -33.6)" id="e"  ><path style="stroke: none; stroke-width: 1; stroke-dasharray: none; stroke-linecap: butt; stroke-dashoffset: 0; stroke-linejoin: miter; stroke-miterlimit: 4; fill: rgb(255,211,165); fill-rule: nonzero; opacity: 1;"  transform=" translate(-14.15, -101.94)" d="M 19.96 76.69 C 9.440000000000001 102.72 7.83 105.77 26.37 127.88 L 22.52 131.76999999999998 C -2.45 112.57 -2.16 99.8 9.91 72.11 L 19.96 76.69 Z" stroke-linecap="round" /></g><g transform="matrix(1 0 0 1 -141.37 -52.79)" id="e"  ><path style="stroke: none; stroke-width: 1; stroke-dasharray: none; stroke-linecap: butt; stroke-dashoffset: 0; stroke-linejoin: miter; stroke-miterlimit: 4; fill: rgb(38,50,56); fill-rule: nonzero; opacity: 1;"  transform=" translate(-11.21, -82.76)" d="M 11.17 66.93 C 4.67 69.43 0 93.21000000000001 0 93.21000000000001 L 15.48 99.31 C 16.9 96.3 32.760000000000005 60.74 11.16 66.93 Z" stroke-linecap="round" /></g><g transform="matrix(1 0 0 1 -126.02 -4.09)" id="e"  ><path style="stroke: none; stroke-width: 1; stroke-dasharray: none; stroke-linecap: butt; stroke-dashoffset: 0; stroke-linejoin: miter; stroke-miterlimit: 4; fill: rgb(255,211,165); fill-rule: nonzero; opacity: 1;"  transform=" translate(-26.56, -131.45)" d="M 24.71 126.91 L 31.86 128.81 L 25.93 135.99 C 25.93 135.99 20.2 133.02 21.439999999999998 129.81 L 24.709999999999997 126.91 Z" stroke-linecap="round" /></g><g transform="matrix(1 0 0 1 -121.11 -0.94)" id="e"  ><polygon style="stroke: none; stroke-width: 1; stroke-dasharray: none; stroke-linecap: butt; stroke-dashoffset: 0; stroke-linejoin: miter; stroke-miterlimit: 4; fill: rgb(255,211,165); fill-rule: nonzero; opacity: 1;"  points="5.55,0.17 0.38,5.79 -5.55,1.38 0.38,-5.8 5.55,0.17 " /></g></g></g></svg>